<?xml version="1.0" encoding="UTF-8" standalone="no"?>
<!DOCTYPE svg PUBLIC "-//W3C//DTD SVG 1.1//EN" "http://www.w3.org/Graphics/SVG/1.1/DTD/svg11.dtd">
<svg width="100%" height="100%" viewBox="0 0 15 16" version="1.1" xmlns="http://www.w3.org/2000/svg" xmlns:xlink="http://www.w3.org/1999/xlink" xml:space="preserve" xmlns:serif="http://www.serif.com/" style="fill-rule:evenodd;clip-rule:evenodd;stroke-linejoin:round;stroke-miterlimit:2;">
    <g transform="matrix(1,0,0,1,-0.56875,-0.00117117)">
        <path d="M0.569,10.966L0.569,9.141C0.569,9.059 0.631,8.997 0.713,8.997L1.569,8.997C1.65,8.997 1.712,9.059 1.712,9.141L1.712,10.141L2.856,10.141L2.856,4.569C2.856,4.488 2.919,4.425 3,4.425L3.856,4.425C3.938,4.425 4,4.488 4,4.569L4,5.569L5.134,5.569L5.134,4.569C5.134,4.488 5.197,4.425 5.278,4.425L6.134,4.425C6.216,4.425 6.278,4.488 6.278,4.569L6.278,5.569L7.422,5.569L7.422,4.569C7.422,4.381 7.672,4.425 7.787,4.425L7.787,0.934C7.619,0.853 7.503,0.675 7.503,0.487C7.503,-0.163 8.484,-0.159 8.484,0.487C8.484,0.675 8.369,0.853 8.2,0.934L8.2,1.087C8.441,1.031 8.691,0.997 8.941,0.997C9.306,0.997 9.656,1.131 9.959,1.131C10.237,1.131 10.55,0.997 10.709,0.997C10.791,0.997 10.853,1.059 10.853,1.141L10.853,3.016C10.853,3.231 10.131,3.266 9.987,3.266C9.659,3.266 9.347,3.131 9.006,3.131C8.737,3.131 8.462,3.175 8.203,3.237L8.203,4.425C8.319,4.425 8.569,4.381 8.569,4.569L8.569,5.569L9.712,5.569L9.712,4.569C9.712,4.488 9.775,4.425 9.856,4.425L10.712,4.425C10.794,4.425 10.856,4.488 10.856,4.569L10.856,5.569L12,5.569L12,4.569C12,4.488 12.062,4.425 12.144,4.425L13,4.425C13.081,4.425 13.144,4.488 13.144,4.569L13.144,10.141L14.288,10.141L14.288,9.141C14.288,9.059 14.35,8.997 14.431,8.997L15.288,8.997C15.369,8.997 15.431,9.059 15.428,9.141L15.428,10.974C14.453,13.404 12.32,15.246 9.713,15.816L9.713,13C9.713,10.731 6.284,10.731 6.284,13L6.284,15.815C3.676,15.244 1.542,13.399 0.569,10.966ZM6.284,8.856L6.284,6.856C6.284,6.775 6.222,6.712 6.141,6.712L5.284,6.712C5.203,6.712 5.141,6.775 5.141,6.856L5.141,8.856C5.141,8.938 5.203,9 5.284,9L6.141,9C6.222,9 6.284,8.938 6.284,8.856ZM10.859,8.856L10.859,6.856C10.859,6.775 10.797,6.712 10.716,6.712L9.859,6.712C9.778,6.712 9.716,6.775 9.716,6.856L9.716,8.856C9.716,8.938 9.778,9 9.859,9L10.716,9C10.797,9 10.859,8.938 10.859,8.856Z"/>
    </g>
</svg>
