<?xml version="1.0" encoding="UTF-8" standalone="no"?>
<!DOCTYPE svg PUBLIC "-//W3C//DTD SVG 1.1//EN" "http://www.w3.org/Graphics/SVG/1.1/DTD/svg11.dtd">
<svg width="100%" height="100%" viewBox="0 0 159 100" version="1.1" xmlns="http://www.w3.org/2000/svg" xmlns:xlink="http://www.w3.org/1999/xlink" xml:space="preserve" xmlns:serif="http://www.serif.com/" style="fill-rule:evenodd;clip-rule:evenodd;stroke-linejoin:round;stroke-miterlimit:2;">
    <g transform="matrix(1,0,0,1,-2240.05,-225.317)">
        <g>
            <g transform="matrix(1,0,0,1,905.767,-464.991)">
                <path d="M1376.79,740.016C1376.42,738.897 1376.23,737.701 1376.23,736.46C1376.23,730.137 1381.36,725.003 1387.68,725.003C1393.09,725.003 1397.62,728.753 1398.83,733.792L1376.79,740.016Z" style="fill:rgb(97,56,18);"/>
                <g transform="matrix(-1,0,0,1,2826.77,0)">
                    <path d="M1376.79,740.016C1376.42,738.897 1376.23,737.701 1376.23,736.46C1376.23,730.137 1381.36,725.003 1387.68,725.003C1393.09,725.003 1397.62,728.753 1398.83,733.792L1376.79,740.016Z" style="fill:rgb(97,56,18);"/>
                </g>
                <path d="M1399.41,769.051C1393.05,766.27 1388.86,761.577 1388.86,756.261L1436.93,756.261C1436.93,761.577 1432.75,766.27 1426.38,769.051C1422.53,770.731 1417.89,771.713 1412.9,771.713C1407.9,771.713 1403.26,770.731 1399.41,769.051Z" style="fill:rgb(97,56,18);"/>
            </g>
            <g transform="matrix(0.873227,0,0,1,2099.36,215.409)">
                <rect x="161.117" y="9.908" width="181.174" height="99.333" style="fill:none;"/>
            </g>
        </g>
    </g>
</svg>
