<?xml version="1.0" encoding="UTF-8" standalone="no"?>
<!DOCTYPE svg PUBLIC "-//W3C//DTD SVG 1.1//EN" "http://www.w3.org/Graphics/SVG/1.1/DTD/svg11.dtd">
<svg width="100%" height="100%" viewBox="0 0 159 100" version="1.1" xmlns="http://www.w3.org/2000/svg" xmlns:xlink="http://www.w3.org/1999/xlink" xml:space="preserve" xmlns:serif="http://www.serif.com/" style="fill-rule:evenodd;clip-rule:evenodd;stroke-linecap:round;stroke-linejoin:round;stroke-miterlimit:1.5;">
    <g transform="matrix(1,0,0,1,-1438.04,-9.90805)">
        <g>
            <g transform="matrix(1,0,0,1,-51.0872,-5.90817)">
                <g transform="matrix(0.407323,-0.207533,0.207533,0.407323,957.497,227.568)">
                    <path d="M1294.17,234.761C1295.11,233.166 1296.83,232.187 1298.68,232.187C1300.54,232.187 1302.25,233.166 1303.2,234.761L1318.02,259.803L1346.42,266.165C1348.23,266.571 1349.69,267.901 1350.26,269.664C1350.84,271.428 1350.44,273.362 1349.21,274.754L1329.98,296.593L1332.7,325.567C1332.87,327.413 1332.06,329.213 1330.56,330.303C1329.06,331.393 1327.1,331.61 1325.39,330.875L1298.68,319.33L1271.97,330.875C1270.27,331.61 1268.3,331.393 1266.8,330.303C1265.3,329.213 1264.49,327.413 1264.66,325.567L1267.39,296.593L1248.15,274.754C1246.93,273.362 1246.53,271.428 1247.1,269.664C1247.67,267.901 1249.13,266.571 1250.94,266.165L1279.34,259.803L1294.17,234.761Z" style="fill:none;stroke:rgb(84,56,17);stroke-width:6.84px;"/>
                </g>
                <g transform="matrix(0.311304,0.0789174,-0.0789174,0.311304,1212.46,-130.664)">
                    <path d="M1294.17,234.761C1295.11,233.166 1296.83,232.187 1298.68,232.187C1300.54,232.187 1302.25,233.166 1303.2,234.761L1318.02,259.803L1346.42,266.165C1348.23,266.571 1349.69,267.901 1350.26,269.664C1350.84,271.428 1350.44,273.362 1349.21,274.754L1329.98,296.593L1332.7,325.567C1332.87,327.413 1332.06,329.213 1330.56,330.303C1329.06,331.393 1327.1,331.61 1325.39,330.875L1298.68,319.33L1271.97,330.875C1270.27,331.61 1268.3,331.393 1266.8,330.303C1265.3,329.213 1264.49,327.413 1264.66,325.567L1267.39,296.593L1248.15,274.754C1246.93,273.362 1246.53,271.428 1247.1,269.664C1247.67,267.901 1249.13,266.571 1250.94,266.165L1279.34,259.803L1294.17,234.761Z" style="fill:none;stroke:rgb(84,56,17);stroke-width:9.73px;"/>
                </g>
                <g transform="matrix(0.200874,-0.024343,0.024343,0.200874,1317.9,69.1891)">
                    <path d="M1294.17,234.761C1295.11,233.166 1296.83,232.187 1298.68,232.187C1300.54,232.187 1302.25,233.166 1303.2,234.761L1318.02,259.803L1346.42,266.165C1348.23,266.571 1349.69,267.901 1350.26,269.664C1350.84,271.428 1350.44,273.362 1349.21,274.754L1329.98,296.593L1332.7,325.567C1332.87,327.413 1332.06,329.213 1330.56,330.303C1329.06,331.393 1327.1,331.61 1325.39,330.875L1298.68,319.33L1271.97,330.875C1270.27,331.61 1268.3,331.393 1266.8,330.303C1265.3,329.213 1264.49,327.413 1264.66,325.567L1267.39,296.593L1248.15,274.754C1246.93,273.362 1246.53,271.428 1247.1,269.664C1247.67,267.901 1249.13,266.571 1250.94,266.165L1279.34,259.803L1294.17,234.761Z" style="fill:none;stroke:rgb(84,56,17);stroke-width:15.44px;"/>
                </g>
            </g>
            <g transform="matrix(0.873227,0,0,1,1297.35,0)">
                <rect x="161.117" y="9.908" width="181.174" height="99.333" style="fill:none;"/>
            </g>
        </g>
    </g>
</svg>
