<?xml version="1.0" encoding="UTF-8"?>
<!DOCTYPE svg PUBLIC "-//W3C//DTD SVG 1.1//EN" "http://www.w3.org/Graphics/SVG/1.1/DTD/svg11.dtd">
<!-- Creator: CorelDRAW 2019 (64-Bit) -->
<svg xmlns="http://www.w3.org/2000/svg" xml:space="preserve" width="5.33082in" height="5.35022in" version="1.1" style="shape-rendering:geometricPrecision; text-rendering:geometricPrecision; image-rendering:optimizeQuality; fill-rule:evenodd; clip-rule:evenodd"
viewBox="0 0 1317.74 1322.53"
 xmlns:xlink="http://www.w3.org/1999/xlink"
 xmlns:xodm="http://www.corel.com/coreldraw/odm/2003">
 <defs>
  <style type="text/css">
   <![CDATA[
    .fil0 {fill:black}
   ]]>
  </style>
 </defs>
 <g id="Слой_x0020_1">
  <metadata id="CorelCorpID_0Corel-Layer"/>
  <path class="fil0" d="M1317.21 654.32c2.74,-30.58 -5.2,-28.3 -25.87,-39.05 -38.93,-20.24 -81.64,-46.09 -115.06,-70.3 -28.01,-20.3 -45.9,-34.23 -69.89,-53.65 -48.56,-39.31 -46.68,-37.64 -37.32,-74.18 16.23,-63.4 85.66,-367.69 71.36,-414.26 -1.31,-4.26 -10.5,-3.4 -13.38,0 -15.09,17.81 -57.62,60.45 -81.6,76.23 -240.65,158.41 -576.72,-41.93 -808.56,87.44 -26.83,14.97 -75.44,48.77 -87.31,68.07l162.65 579.87c5.93,20.37 15.28,65.04 23.55,81.63 8.27,-3.75 24.71,-22.79 43.37,-36.21 275.27,-198.09 660.38,92.43 906.66,-161.93 16.42,-16.96 20.58,-17.59 31.4,-43.65z"/>
  <path class="fil0" d="M41.88 228.42l0 -0c30.35,-8.47 62.12,9.42 70.59,39.78l274.08 981.64c8.47,30.35 -9.43,62.12 -39.78,70.59l-0 0c-30.35,8.47 -62.12,-9.42 -70.59,-39.78l-274.08 -981.64c-8.47,-30.35 9.43,-62.12 39.78,-70.59z"/>
 </g>
</svg>
