<?xml version="1.0" encoding="UTF-8"?>
<!DOCTYPE svg PUBLIC "-//W3C//DTD SVG 1.1//EN" "http://www.w3.org/Graphics/SVG/1.1/DTD/svg11.dtd">
<!-- Creator: CorelDRAW 2019 (64-Bit) -->
<svg xmlns="http://www.w3.org/2000/svg" xml:space="preserve" width="4.61635in" height="4.60398in" version="1.1" style="shape-rendering:geometricPrecision; text-rendering:geometricPrecision; image-rendering:optimizeQuality; fill-rule:evenodd; clip-rule:evenodd"
viewBox="0 0 527.7 526.29"
 xmlns:xlink="http://www.w3.org/1999/xlink"
 xmlns:xodm="http://www.corel.com/coreldraw/odm/2003">
 <defs>
  <style type="text/css">
   <![CDATA[
    .fil0 {fill:#EBEBEB;fill-rule:nonzero}
   ]]>
  </style>
 </defs>
 <g id="Слой_x0020_1">
  <metadata id="CorelCorpID_0Corel-Layer"/>
  <path id="Help_x0020_Click" class="fil0" d="M251.26 481.08c-2.36,7.42 -5.47,13.89 -9.1,19.41 -4.22,6.43 -9.07,11.56 -14.27,15.45 -4.38,3.27 -9.18,5.8 -14.21,7.55 -5.12,1.79 -10.48,2.72 -15.85,2.8 -5.26,0.09 -10.48,-0.66 -15.46,-2.18 -5.05,-1.54 -9.84,-3.84 -14.15,-6.77 -5.09,-3.47 -9.74,-7.95 -13.67,-13.3 -3.64,-4.97 -6.67,-10.67 -8.85,-17l-141.77 -410.88c-2.45,-7.1 -3.71,-13.98 -3.91,-20.47 -0.24,-7.36 0.8,-14.2 2.91,-20.37 1.27,-3.75 3,-7.36 5.1,-10.74 2.09,-3.43 4.59,-6.56 7.43,-9.39 2.74,-2.71 5.83,-5.14 9.18,-7.22 3.43,-2.12 6.96,-3.82 10.52,-5.04 5.85,-2.01 12.28,-3.03 19.05,-2.92 6.27,0.1 12.68,1.18 18.96,3.32l418.88 143.16c5.91,2.01 11.15,4.88 15.66,8.38 4.87,3.76 8.89,8.26 12.02,13.22 2.82,4.47 4.91,9.24 6.21,14.12 1.3,4.86 1.89,10.02 1.74,15.27 -0.14,4.98 -0.99,10.01 -2.53,14.86 -1.4,4.7 -3.61,9.32 -6.47,13.66 -3.38,5.11 -7.75,9.81 -13.07,13.75 -4.81,3.58 -10.47,6.53 -16.9,8.58l-180.3 57.62c-23.17,71.3 -32.44,97.91 -57.15,175.14zm5.68 -207.68c1.65,-4.99 4.46,-9.22 7.97,-12.48 3.76,-3.42 8.23,-5.85 12.97,-7.03l178.78 -57.13 -395.43 -135.15 136.2 394.53c19.48,-61.09 39.7,-121.78 59.52,-182.74z"/>
 </g>
</svg>
