<?xml version="1.0" encoding="UTF-8"?>
<svg
  xmlns="http://www.w3.org/2000/svg"
  xml:space="preserve"
  version="1.1"
  viewBox="0 0 334.3 469.43"
>
  <defs>
    <style type="text/css">
      <![CDATA[
      .fil2 {
        fill: none
      }

      .fil10 {
        fill: #003000
      }

      .fil15 {
        fill: #00F0AF
      }

      .fil8 {
        fill: #120500
      }

      .fil12 {
        fill: #302929
      }

      .fil7 {
        fill: #3A2F29
      }

      .fil11 {
        fill: #3C312D
      }

      .fil9 {
        fill: #584D49
      }

      .fil14 {
        fill: #745C52
      }

      .fil13 {
        fill: #95817A
      }

      .fil6 {
        fill: #A28B85
      }

      .fil3 {
        fill: #BC8600
      }

      .fil5 {
        fill: #CE9900
      }

      .fil4 {
        fill: #F6C700
      }

      .fil1 {
        fill: #FAD701
      }

      .fil0 {
        fill: #3A2F29;
        fill-rule: nonzero
      }
      ]]>
    </style>
  </defs>
  <g>
    <path class="fil0"
      d="M16.2 370.74c-0.48,0 -0.91,-0.19 -1.31,-0.59 -0.39,-0.39 -0.59,-0.83 -0.59,-1.31 0,-0.3 0.03,-0.57 0.09,-0.81l21.15 -57.79c0.18,-0.66 0.55,-1.25 1.12,-1.76 0.57,-0.51 1.37,-0.77 2.39,-0.77l13.32 0c1.02,0 1.82,0.26 2.39,0.77 0.57,0.51 0.95,1.1 1.12,1.76l21.06 57.79c0.12,0.24 0.18,0.51 0.18,0.81 0,0.48 -0.19,0.91 -0.59,1.31 -0.39,0.39 -0.86,0.59 -1.4,0.59l-11.07 0c-0.9,0 -1.58,-0.23 -2.03,-0.68 -0.45,-0.45 -0.74,-0.86 -0.86,-1.22l-3.51 -9.18 -24.03 0 -3.42 9.18c-0.12,0.36 -0.39,0.76 -0.81,1.22 -0.42,0.45 -1.14,0.68 -2.16,0.68l-11.07 0zm21.15 -24.03l16.74 0 -8.37 -23.76 -8.37 23.76z" />
    <path class="fil0"
      d="M81.37 370.74c-0.54,0 -1.01,-0.19 -1.4,-0.59 -0.39,-0.39 -0.59,-0.89 -0.59,-1.49 0,-0.12 0.03,-0.32 0.09,-0.59 0.06,-0.27 0.18,-0.53 0.36,-0.77l15.03 -20.61 -13.68 -19.35c-0.18,-0.24 -0.32,-0.48 -0.4,-0.72 -0.09,-0.24 -0.14,-0.48 -0.14,-0.72 0,-0.54 0.21,-1.01 0.63,-1.4 0.42,-0.39 0.9,-0.59 1.44,-0.59l10.98 0c0.78,0 1.37,0.18 1.76,0.54 0.39,0.36 0.68,0.69 0.86,0.99l8.37 11.52 8.28 -11.43c0.24,-0.3 0.55,-0.65 0.95,-1.04 0.39,-0.39 0.98,-0.59 1.76,-0.59l10.53 0c0.54,0 1.01,0.2 1.4,0.59 0.39,0.39 0.59,0.86 0.59,1.4 0,0.24 -0.03,0.48 -0.09,0.72 -0.06,0.24 -0.18,0.48 -0.36,0.72l-14.04 19.35 15.3 20.61c0.18,0.24 0.3,0.48 0.36,0.72 0.06,0.24 0.09,0.45 0.09,0.63 0,0.6 -0.19,1.1 -0.59,1.49 -0.39,0.39 -0.86,0.59 -1.4,0.59l-11.52 0c-0.72,0 -1.26,-0.17 -1.62,-0.49 -0.36,-0.33 -0.66,-0.65 -0.9,-0.95l-9.09 -12.33 -9.18 12.33c-0.24,0.24 -0.54,0.54 -0.9,0.9 -0.36,0.36 -0.9,0.54 -1.62,0.54l-11.25 0z" />
    <path class="fil0"
      d="M160.13 370.74c-3.84,0 -7.16,-0.62 -9.95,-1.85 -2.79,-1.23 -4.94,-3.15 -6.44,-5.76 -1.5,-2.61 -2.25,-5.99 -2.25,-10.13l0 -17.28 -7.02 0c-0.66,0 -1.22,-0.21 -1.67,-0.63 -0.45,-0.42 -0.68,-0.96 -0.68,-1.62l0 -7.29c0,-0.66 0.23,-1.2 0.68,-1.62 0.45,-0.42 1.01,-0.63 1.67,-0.63l7.02 0 0 -14.85c0,-0.66 0.23,-1.2 0.68,-1.62 0.45,-0.42 0.97,-0.63 1.58,-0.63l10.44 0c0.66,0 1.2,0.21 1.62,0.63 0.42,0.42 0.63,0.96 0.63,1.62l0 14.85 11.25 0c0.66,0 1.22,0.21 1.67,0.63 0.45,0.42 0.67,0.96 0.67,1.62l0 7.29c0,0.66 -0.23,1.2 -0.67,1.62 -0.45,0.42 -1.01,0.63 -1.67,0.63l-11.25 0 0 16.02c0,2.04 0.39,3.66 1.17,4.86 0.78,1.2 2.1,1.8 3.96,1.8l6.93 0c0.66,0 1.2,0.21 1.62,0.63 0.42,0.42 0.63,0.96 0.63,1.62l0 7.83c0,0.6 -0.21,1.12 -0.63,1.58 -0.42,0.45 -0.96,0.68 -1.62,0.68l-8.37 0z" />
    <path class="fil0"
      d="M199.83 371.65c-7.08,0 -12.72,-1.92 -16.92,-5.76 -4.2,-3.84 -6.39,-9.54 -6.57,-17.1 0,-0.42 0,-0.96 0,-1.62 0,-0.66 0,-1.17 0,-1.53 0.18,-4.74 1.25,-8.81 3.2,-12.2 1.95,-3.39 4.65,-5.97 8.1,-7.74 3.45,-1.77 7.49,-2.66 12.11,-2.66 5.28,0 9.65,1.05 13.1,3.15 3.45,2.1 6.05,4.95 7.79,8.55 1.74,3.6 2.61,7.71 2.61,12.33l0 2.16c0,0.66 -0.21,1.2 -0.63,1.62 -0.42,0.42 -0.96,0.63 -1.62,0.63l-28.8 0c0,0.06 0,0.15 0,0.27 0,0.12 0,0.24 0,0.36 0.06,1.74 0.38,3.33 0.95,4.77 0.57,1.44 1.41,2.58 2.52,3.42 1.11,0.84 2.48,1.26 4.1,1.26 1.2,0 2.21,-0.2 3.02,-0.59 0.81,-0.39 1.49,-0.84 2.03,-1.35 0.54,-0.51 0.96,-0.95 1.26,-1.31 0.54,-0.66 0.98,-1.07 1.31,-1.22 0.33,-0.15 0.86,-0.23 1.58,-0.23l11.16 0c0.6,0 1.1,0.18 1.49,0.54 0.39,0.36 0.55,0.84 0.49,1.44 -0.06,1.02 -0.57,2.25 -1.53,3.69 -0.96,1.44 -2.36,2.87 -4.19,4.28 -1.83,1.41 -4.13,2.57 -6.89,3.47 -2.76,0.9 -5.97,1.35 -9.63,1.35zm-7.65 -29.07l15.21 0 0 -0.18c0,-1.98 -0.29,-3.68 -0.86,-5.09 -0.57,-1.41 -1.44,-2.51 -2.61,-3.29 -1.17,-0.78 -2.57,-1.17 -4.19,-1.17 -1.56,0 -2.91,0.39 -4.05,1.17 -1.14,0.78 -2.01,1.88 -2.61,3.29 -0.6,1.41 -0.9,3.11 -0.9,5.09l0 0.18z" />
    <path class="fil0"
      d="M233.94 370.74c-0.66,0 -1.2,-0.23 -1.62,-0.68 -0.42,-0.45 -0.63,-0.98 -0.63,-1.58l0 -42.31c0,-0.6 0.21,-1.13 0.63,-1.58 0.42,-0.45 0.96,-0.68 1.62,-0.68l10.35 0c0.66,0 1.22,0.23 1.67,0.68 0.45,0.45 0.68,0.98 0.68,1.58l0 3.6c1.56,-1.86 3.47,-3.3 5.72,-4.32 2.25,-1.02 4.79,-1.53 7.61,-1.53l3.96 0c0.66,0 1.2,0.21 1.62,0.63 0.42,0.42 0.63,0.96 0.63,1.62l0 9.27c0,0.6 -0.21,1.13 -0.63,1.58 -0.42,0.45 -0.96,0.67 -1.62,0.67l-8.73 0c-2.46,0 -4.37,0.68 -5.72,2.03 -1.35,1.35 -2.03,3.26 -2.03,5.72l0 23.04c0,0.6 -0.23,1.12 -0.68,1.58 -0.45,0.45 -1.01,0.68 -1.67,0.68l-11.16 0z" />
    <path class="fil0"
      d="M294.34 371.65c-5.04,0 -9.29,-0.81 -12.74,-2.43 -3.45,-1.62 -6.09,-3.95 -7.92,-6.98 -1.83,-3.03 -2.87,-6.65 -3.11,-10.85 -0.06,-1.2 -0.09,-2.57 -0.09,-4.1 0,-1.53 0.03,-2.87 0.09,-4.01 0.24,-4.26 1.32,-7.89 3.24,-10.89 1.92,-3 4.61,-5.31 8.06,-6.93 3.45,-1.62 7.61,-2.43 12.47,-2.43 4.92,0 9.11,0.81 12.56,2.43 3.45,1.62 6.14,3.93 8.06,6.93 1.92,3 3,6.63 3.24,10.89 0.06,1.14 0.09,2.48 0.09,4.01 0,1.53 -0.03,2.9 -0.09,4.1 -0.24,4.2 -1.27,7.82 -3.11,10.85 -1.83,3.03 -4.47,5.36 -7.92,6.98 -3.45,1.62 -7.73,2.43 -12.83,2.43zm0 -10.98c2.7,0 4.67,-0.81 5.9,-2.43 1.23,-1.62 1.94,-4.05 2.12,-7.29 0.06,-0.9 0.09,-2.1 0.09,-3.6 0,-1.5 -0.03,-2.7 -0.09,-3.6 -0.18,-3.18 -0.89,-5.6 -2.12,-7.25 -1.23,-1.65 -3.2,-2.48 -5.9,-2.48 -2.58,0 -4.52,0.82 -5.81,2.48 -1.29,1.65 -2,4.07 -2.12,7.25 -0.06,0.9 -0.09,2.1 -0.09,3.6 0,1.5 0.03,2.7 0.09,3.6 0.12,3.24 0.83,5.67 2.12,7.29 1.29,1.62 3.23,2.43 5.81,2.43z" />
    <path class="fil0"
      d="M28.08 450.53c-5.7,0 -10.61,-0.95 -14.72,-2.84 -4.11,-1.89 -7.29,-4.65 -9.54,-8.28 -2.25,-3.63 -3.5,-8.06 -3.74,-13.28 -0.06,-2.58 -0.09,-5.33 -0.09,-8.24 0,-2.91 0.03,-5.69 0.09,-8.33 0.24,-5.1 1.5,-9.42 3.78,-12.96 2.28,-3.54 5.49,-6.24 9.63,-8.1 4.14,-1.86 9,-2.79 14.58,-2.79 4.5,0 8.49,0.55 11.97,1.67 3.48,1.11 6.41,2.6 8.78,4.46 2.37,1.86 4.19,3.9 5.45,6.12 1.26,2.22 1.92,4.41 1.98,6.57 0,0.54 -0.2,0.99 -0.59,1.35 -0.39,0.36 -0.86,0.54 -1.4,0.54l-13.14 0c-0.66,0 -1.16,-0.11 -1.49,-0.32 -0.33,-0.21 -0.61,-0.53 -0.86,-0.95 -0.42,-0.9 -1.04,-1.85 -1.85,-2.84 -0.81,-0.99 -1.92,-1.85 -3.33,-2.57 -1.41,-0.72 -3.26,-1.08 -5.54,-1.08 -3.36,0 -6.03,0.9 -8.01,2.7 -1.98,1.8 -3.06,4.68 -3.24,8.64 -0.18,5.16 -0.18,10.38 0,15.66 0.18,4.2 1.29,7.23 3.33,9.09 2.04,1.86 4.77,2.79 8.19,2.79 2.22,0 4.22,-0.39 5.99,-1.17 1.77,-0.78 3.17,-2 4.19,-3.65 1.02,-1.65 1.53,-3.77 1.53,-6.35l0 -1.71 -8.46 0c-0.66,0 -1.2,-0.22 -1.62,-0.67 -0.42,-0.45 -0.63,-1.01 -0.63,-1.67l0 -6.66c0,-0.66 0.21,-1.22 0.63,-1.67 0.42,-0.45 0.96,-0.68 1.62,-0.68l22.68 0c0.66,0 1.2,0.23 1.62,0.68 0.42,0.45 0.63,1.01 0.63,1.67l0 10.26c0,5.16 -1.17,9.57 -3.51,13.23 -2.34,3.66 -5.66,6.47 -9.95,8.42 -4.29,1.95 -9.29,2.93 -14.99,2.93z" />
    <path class="fil0"
      d="M79.93 450.53c-3.24,0 -6.14,-0.62 -8.69,-1.85 -2.55,-1.23 -4.58,-2.9 -6.08,-5 -1.5,-2.1 -2.25,-4.47 -2.25,-7.11 0,-4.26 1.74,-7.64 5.22,-10.13 3.48,-2.49 8.1,-4.19 13.86,-5.09l11.25 -1.71 0 -1.26c0,-2.16 -0.45,-3.81 -1.35,-4.95 -0.9,-1.14 -2.55,-1.71 -4.95,-1.71 -1.68,0 -3.05,0.33 -4.1,0.99 -1.05,0.66 -1.88,1.56 -2.48,2.7 -0.54,0.78 -1.29,1.17 -2.25,1.17l-10.08 0c-0.66,0 -1.17,-0.19 -1.53,-0.59 -0.36,-0.39 -0.51,-0.86 -0.45,-1.4 0,-1.08 0.41,-2.33 1.22,-3.74 0.81,-1.41 2.06,-2.81 3.74,-4.19 1.68,-1.38 3.84,-2.52 6.48,-3.42 2.64,-0.9 5.85,-1.35 9.63,-1.35 3.84,0 7.14,0.45 9.9,1.35 2.76,0.9 5.01,2.16 6.75,3.78 1.74,1.62 3.02,3.53 3.83,5.72 0.81,2.19 1.22,4.61 1.22,7.25l0 27.36c0,0.6 -0.23,1.12 -0.68,1.58 -0.45,0.45 -0.98,0.68 -1.58,0.68l-10.44 0c-0.66,0 -1.2,-0.23 -1.62,-0.68 -0.42,-0.45 -0.63,-0.98 -0.63,-1.58l0 -3.15c-0.78,1.14 -1.83,2.19 -3.15,3.15 -1.32,0.96 -2.87,1.73 -4.64,2.3 -1.77,0.57 -3.83,0.86 -6.17,0.86zm4.23 -10.26c1.74,0 3.32,-0.38 4.73,-1.13 1.41,-0.75 2.52,-1.92 3.33,-3.51 0.81,-1.59 1.22,-3.59 1.22,-5.99l0 -1.26 -7.65 1.35c-2.82,0.48 -4.88,1.22 -6.17,2.21 -1.29,0.99 -1.94,2.15 -1.94,3.47 0,1.02 0.3,1.89 0.9,2.61 0.6,0.72 1.4,1.27 2.39,1.67 0.99,0.39 2.06,0.59 3.2,0.59z" />
    <path class="fil0"
      d="M121.25 449.63c-0.66,0 -1.2,-0.23 -1.62,-0.68 -0.42,-0.45 -0.63,-0.98 -0.63,-1.58l0 -42.31c0,-0.66 0.21,-1.2 0.63,-1.62 0.42,-0.42 0.96,-0.63 1.62,-0.63l9.81 0c0.66,0 1.2,0.21 1.62,0.63 0.42,0.42 0.63,0.96 0.63,1.62l0 3.06c1.2,-1.62 2.88,-3.05 5.04,-4.28 2.16,-1.23 4.71,-1.88 7.65,-1.94 6.96,-0.18 11.73,2.4 14.31,7.74 1.38,-2.28 3.35,-4.14 5.9,-5.58 2.55,-1.44 5.36,-2.16 8.42,-2.16 3.12,0 5.93,0.7 8.42,2.12 2.49,1.41 4.49,3.57 5.99,6.48 1.5,2.91 2.25,6.68 2.25,11.3l0 25.56c0,0.6 -0.21,1.12 -0.63,1.58 -0.42,0.45 -0.96,0.68 -1.62,0.68l-10.44 0c-0.66,0 -1.22,-0.23 -1.67,-0.68 -0.45,-0.45 -0.68,-0.98 -0.68,-1.58l0 -24.93c0,-2.1 -0.3,-3.77 -0.9,-5 -0.6,-1.23 -1.41,-2.12 -2.43,-2.66 -1.02,-0.54 -2.19,-0.81 -3.51,-0.81 -1.08,0 -2.15,0.27 -3.2,0.81 -1.05,0.54 -1.89,1.43 -2.52,2.66 -0.63,1.23 -0.95,2.9 -0.95,5l0 24.93c0,0.6 -0.21,1.12 -0.63,1.58 -0.42,0.45 -0.96,0.68 -1.62,0.68l-10.44 0c-0.66,0 -1.2,-0.23 -1.62,-0.68 -0.42,-0.45 -0.63,-0.98 -0.63,-1.58l0 -24.93c0,-2.1 -0.33,-3.77 -0.99,-5 -0.66,-1.23 -1.5,-2.12 -2.52,-2.66 -1.02,-0.54 -2.13,-0.81 -3.33,-0.81 -1.14,0 -2.24,0.27 -3.29,0.81 -1.05,0.54 -1.89,1.43 -2.52,2.66 -0.63,1.23 -0.95,2.87 -0.95,4.91l0 25.02c0,0.6 -0.23,1.12 -0.67,1.58 -0.45,0.45 -0.98,0.68 -1.58,0.68l-10.71 0z" />
    <path class="fil0"
      d="M203.7 449.63c-0.66,0 -1.2,-0.23 -1.62,-0.68 -0.42,-0.45 -0.63,-0.98 -0.63,-1.58l0 -42.31c0,-0.66 0.21,-1.2 0.63,-1.62 0.42,-0.42 0.96,-0.63 1.62,-0.63l10.62 0c0.66,0 1.2,0.21 1.62,0.63 0.42,0.42 0.63,0.96 0.63,1.62l0 42.31c0,0.6 -0.21,1.12 -0.63,1.58 -0.42,0.45 -0.96,0.68 -1.62,0.68l-10.62 0zm-0.09 -53.56c-0.66,0 -1.2,-0.21 -1.62,-0.63 -0.42,-0.42 -0.63,-0.96 -0.63,-1.62l0 -8.1c0,-0.6 0.21,-1.13 0.63,-1.58 0.42,-0.45 0.96,-0.68 1.62,-0.68l10.8 0c0.6,0 1.13,0.23 1.58,0.68 0.45,0.45 0.67,0.98 0.67,1.58l0 8.1c0,0.66 -0.23,1.2 -0.67,1.62 -0.45,0.42 -0.98,0.63 -1.58,0.63l-10.8 0z" />
    <path class="fil0"
      d="M232.23 449.63c-0.66,0 -1.2,-0.23 -1.62,-0.68 -0.42,-0.45 -0.63,-0.98 -0.63,-1.58l0 -42.31c0,-0.66 0.21,-1.2 0.63,-1.62 0.42,-0.42 0.96,-0.63 1.62,-0.63l10.35 0c0.66,0 1.22,0.21 1.67,0.63 0.45,0.42 0.68,0.96 0.68,1.62l0 3.42c1.5,-1.86 3.51,-3.42 6.03,-4.68 2.52,-1.26 5.49,-1.89 8.91,-1.89 3.48,0 6.56,0.78 9.23,2.34 2.67,1.56 4.77,3.84 6.3,6.84 1.53,3 2.3,6.72 2.3,11.16l0 25.11c0,0.6 -0.21,1.12 -0.63,1.58 -0.42,0.45 -0.96,0.68 -1.62,0.68l-11.34 0c-0.6,0 -1.13,-0.23 -1.58,-0.68 -0.45,-0.45 -0.68,-0.98 -0.68,-1.58l0 -24.57c0,-2.82 -0.68,-5 -2.03,-6.53 -1.35,-1.53 -3.35,-2.3 -5.99,-2.3 -2.46,0 -4.43,0.77 -5.9,2.3 -1.47,1.53 -2.21,3.71 -2.21,6.53l0 24.57c0,0.6 -0.23,1.12 -0.68,1.58 -0.45,0.45 -0.98,0.68 -1.58,0.68l-11.25 0z" />
    <path class="fil0"
      d="M310.81 469.43c-4.62,0 -8.45,-0.6 -11.48,-1.8 -3.03,-1.2 -5.43,-2.64 -7.2,-4.32 -1.77,-1.68 -3.05,-3.35 -3.83,-5 -0.78,-1.65 -1.2,-2.96 -1.26,-3.92 -0.06,-0.66 0.15,-1.22 0.63,-1.67 0.48,-0.45 1.05,-0.68 1.71,-0.68l11.43 0c0.6,0 1.08,0.15 1.44,0.45 0.36,0.3 0.66,0.78 0.9,1.44 0.36,0.66 0.78,1.34 1.26,2.03 0.48,0.69 1.19,1.28 2.12,1.76 0.93,0.48 2.21,0.72 3.83,0.72 1.8,0 3.3,-0.29 4.5,-0.86 1.2,-0.57 2.1,-1.5 2.7,-2.79 0.6,-1.29 0.9,-3.02 0.9,-5.18l0 -6.03c-1.38,1.5 -3.15,2.72 -5.31,3.65 -2.16,0.93 -4.77,1.4 -7.83,1.4 -3.06,0 -5.76,-0.45 -8.1,-1.35 -2.34,-0.9 -4.29,-2.25 -5.85,-4.05 -1.56,-1.8 -2.78,-3.99 -3.65,-6.57 -0.87,-2.58 -1.4,-5.55 -1.58,-8.91 -0.06,-1.56 -0.06,-3.15 0,-4.77 0.18,-3.18 0.69,-6.08 1.53,-8.69 0.84,-2.61 2.06,-4.83 3.65,-6.66 1.59,-1.83 3.56,-3.24 5.9,-4.23 2.34,-0.99 5.04,-1.48 8.1,-1.48 3.24,0 6.02,0.61 8.33,1.85 2.31,1.23 4.22,2.78 5.72,4.64l0 -3.33c0,-0.6 0.21,-1.13 0.63,-1.58 0.42,-0.45 0.96,-0.68 1.62,-0.68l10.35 0c0.66,0 1.22,0.23 1.67,0.68 0.45,0.45 0.67,0.98 0.67,1.58l0 43.3c0,4.56 -0.91,8.4 -2.75,11.52 -1.83,3.12 -4.5,5.49 -8.01,7.11 -3.51,1.62 -7.76,2.43 -12.74,2.43zm-0.63 -32.49c1.92,0 3.48,-0.42 4.68,-1.26 1.2,-0.84 2.09,-1.92 2.66,-3.24 0.57,-1.32 0.89,-2.73 0.95,-4.23 0.06,-0.66 0.09,-1.59 0.09,-2.79 0,-1.2 -0.03,-2.1 -0.09,-2.7 -0.06,-1.56 -0.37,-3 -0.95,-4.32 -0.57,-1.32 -1.46,-2.39 -2.66,-3.2 -1.2,-0.81 -2.76,-1.22 -4.68,-1.22 -1.98,0 -3.56,0.42 -4.73,1.26 -1.17,0.84 -2.01,1.98 -2.52,3.42 -0.51,1.44 -0.83,3.03 -0.95,4.77 -0.06,1.32 -0.06,2.67 0,4.05 0.12,1.74 0.44,3.33 0.95,4.77 0.51,1.44 1.35,2.58 2.52,3.42 1.17,0.84 2.75,1.26 4.73,1.26z" />
    <g>
      <polygon class="fil1"
        points="82.39,123.01 82.39,126.39 85.21,127.85 82.39,128.61 82.39,131.99 85.21,133.45 82.39,134.21 82.39,137.59 85.21,139.05 82.39,139.81 82.39,143.19 85.21,144.65 82.39,145.41 82.39,148.79 85.21,150.25 82.39,151.01 82.39,154.39 85.21,155.85 82.39,156.61 82.39,159.99 85.21,161.45 82.39,162.21 82.39,165.59 85.21,167.05 82.39,167.81 82.39,171.19 85.21,172.65 82.39,173.41 82.39,176.79 85.21,178.25 82.39,179.01 82.39,182.39 85.21,183.85 82.39,184.61 82.39,187.99 85.21,189.45 82.39,190.2 82.39,193.58 85.21,195.05 82.39,195.8 82.39,199.18 85.21,200.65 82.39,201.4 82.39,204.78 85.21,206.25 82.39,207 82.39,210.38 85.21,211.85 82.39,212.6 82.39,219.8 125.53,242.23 251.91,216.57 251.91,22.43 208.77,0 82.39,25.66 82.39,120.79 85.21,122.26 " />
      <rect class="fil2" transform="matrix(1 -0.203018 -0 1 149.433 62.4768)" width="78.58" height="67.66" />
      <rect class="fil2" transform="matrix(1.28761 -0.261407 -0 1.28761 138.133 55.0409)" width="78.58"
        height="67.66" />
      <rect class="fil2" transform="matrix(0.349993 -0.0710549 -0 0.349992 186.713 209.714)" width="11.48"
        height="11.48" />
      <rect class="fil2" transform="matrix(0.349993 -0.0710549 -0 0.349992 194.749 208.082)" width="11.48"
        height="11.48" />
      <rect class="fil2" transform="matrix(0.349993 -0.0710549 -0 0.349992 202.785 206.451)" width="11.48"
        height="11.48" />
      <rect class="fil2" transform="matrix(0.349993 -0.0710549 -0 0.349992 210.821 204.819)" width="11.48"
        height="11.48" />
      <rect class="fil2" transform="matrix(0.349993 -0.0710549 -0 0.349992 218.858 203.188)" width="11.48"
        height="11.48" />
      <rect class="fil2" transform="matrix(0.349993 -0.0710549 -0 0.349992 226.894 201.556)" width="11.48"
        height="11.48" />
      <line class="fil2" x1="201.03" y1="194.7" x2="204.46" y2="196.15" />
      <line class="fil2" x1="201.03" y1="183.21" x2="204.46" y2="184.67" />
      <line class="fil2" x1="212.51" y1="180.88" x2="215.94" y2="182.34" />
      <line class="fil2" x1="204.46" y1="196.15" x2="215.94" y2="193.82" />
      <line class="fil2" x1="201.03" y1="183.21" x2="201.03" y2="194.7" />
      <line class="fil2" x1="204.46" y1="184.67" x2="204.46" y2="196.15" />
      <line class="fil2" x1="215.94" y1="193.82" x2="215.94" y2="182.34" />
      <line class="fil2" x1="204.46" y1="184.67" x2="215.94" y2="182.34" />
      <line class="fil2" x1="201.03" y1="183.21" x2="212.51" y2="180.88" />
      <line class="fil2" x1="125.53" y1="242.23" x2="82.39" y2="219.8" />
      <line class="fil2" x1="82.39" y1="25.66" x2="125.53" y2="48.09" />
      <line class="fil2" x1="208.77" y1="0" x2="251.91" y2="22.43" />
      <line class="fil2" x1="82.39" y1="25.66" x2="82.39" y2="120.79" />
      <line class="fil2" x1="125.53" y1="48.09" x2="251.91" y2="22.43" />
      <line class="fil2" x1="82.39" y1="25.66" x2="208.77" y2="0" />
      <line class="fil2" x1="125.53" y1="48.09" x2="125.53" y2="242.23" />
      <line class="fil2" x1="125.53" y1="242.23" x2="251.91" y2="216.57" />
      <line class="fil2" x1="251.91" y1="22.43" x2="251.91" y2="216.57" />
      <g>
        <line class="fil2" x1="216.53" y1="168.59" x2="219.96" y2="170.05" />
        <line class="fil2" x1="216.53" y1="157.1" x2="219.96" y2="158.56" />
        <line class="fil2" x1="228.01" y1="154.77" x2="231.44" y2="156.23" />
        <line class="fil2" x1="219.96" y1="170.05" x2="231.44" y2="167.71" />
        <line class="fil2" x1="216.53" y1="157.1" x2="216.53" y2="168.59" />
        <line class="fil2" x1="219.96" y1="158.56" x2="219.96" y2="170.05" />
        <line class="fil2" x1="231.44" y1="167.71" x2="231.44" y2="156.23" />
        <line class="fil2" x1="219.96" y1="158.56" x2="231.44" y2="156.23" />
        <line class="fil2" x1="216.53" y1="157.1" x2="228.01" y2="154.77" />
      </g>
      <g>
        <line class="fil2" x1="141.56" y1="159.69" x2="138.13" y2="158.23" />
        <line class="fil2" x1="138.13" y1="161.96" x2="141.56" y2="163.42" />
        <line class="fil2" x1="153.04" y1="157.36" x2="153.04" y2="161.09" />
        <line class="fil2" x1="138.13" y1="158.23" x2="149.61" y2="155.9" />
        <line class="fil2" x1="138.13" y1="158.23" x2="138.13" y2="161.96" />
        <line class="fil2" x1="141.56" y1="159.69" x2="141.56" y2="163.42" />
        <line class="fil2" x1="149.61" y1="155.9" x2="153.04" y2="157.36" />
        <line class="fil2" x1="141.56" y1="159.69" x2="153.04" y2="157.36" />
        <line class="fil2" x1="141.56" y1="163.42" x2="153.04" y2="161.09" />
      </g>
      <g>
        <line class="fil2" x1="214.03" y1="144.98" x2="210.61" y2="143.52" />
        <line class="fil2" x1="210.61" y1="147.25" x2="214.03" y2="148.71" />
        <line class="fil2" x1="225.51" y1="142.65" x2="225.51" y2="146.38" />
        <line class="fil2" x1="210.61" y1="143.52" x2="222.09" y2="141.19" />
        <line class="fil2" x1="210.61" y1="143.52" x2="210.61" y2="147.25" />
        <line class="fil2" x1="214.03" y1="144.98" x2="214.03" y2="148.71" />
        <line class="fil2" x1="222.09" y1="141.19" x2="225.51" y2="142.65" />
        <line class="fil2" x1="214.03" y1="144.98" x2="225.51" y2="142.65" />
        <line class="fil2" x1="214.03" y1="148.71" x2="225.51" y2="146.38" />
      </g>
      <g>
        <line class="fil2" x1="231.26" y1="141.48" x2="227.83" y2="140.02" />
        <line class="fil2" x1="227.83" y1="143.75" x2="231.26" y2="145.21" />
        <line class="fil2" x1="242.74" y1="139.15" x2="242.74" y2="142.88" />
        <line class="fil2" x1="227.83" y1="140.02" x2="239.31" y2="137.69" />
        <line class="fil2" x1="227.83" y1="140.02" x2="227.83" y2="143.75" />
        <line class="fil2" x1="231.26" y1="141.48" x2="231.26" y2="145.21" />
        <line class="fil2" x1="239.31" y1="137.69" x2="242.74" y2="139.15" />
        <line class="fil2" x1="231.26" y1="141.48" x2="242.74" y2="139.15" />
        <line class="fil2" x1="231.26" y1="145.21" x2="242.74" y2="142.88" />
      </g>
      <line class="fil2" x1="155.36" y1="154.74" x2="158.78" y2="156.19" />
      <line class="fil2" x1="155.36" y1="158.47" x2="158.78" y2="159.93" />
      <line class="fil2" x1="164.52" y1="155.03" x2="164.52" y2="158.76" />
      <line class="fil2" x1="155.36" y1="154.74" x2="155.36" y2="158.47" />
      <line class="fil2" x1="158.78" y1="159.93" x2="158.78" y2="156.19" />
      <line class="fil2" x1="161.1" y1="153.57" x2="164.52" y2="155.03" />
      <line class="fil2" x1="164.52" y1="158.76" x2="158.78" y2="159.93" />
      <line class="fil2" x1="158.78" y1="156.19" x2="164.52" y2="155.03" />
      <line class="fil2" x1="155.36" y1="154.74" x2="161.1" y2="153.57" />
      <line class="fil2" x1="82.39" y1="212.6" x2="87.79" y2="215.41" />
      <line class="fil2" x1="82.39" y1="212.6" x2="85.21" y2="211.85" />
      <line class="fil2" x1="82.39" y1="210.38" x2="87.79" y2="213.19" />
      <line class="fil2" x1="87.79" y1="213.19" x2="87.79" y2="215.41" />
      <line class="fil2" x1="82.39" y1="207" x2="87.79" y2="209.81" />
      <line class="fil2" x1="82.39" y1="207" x2="85.21" y2="206.25" />
      <line class="fil2" x1="82.39" y1="204.78" x2="87.79" y2="207.59" />
      <line class="fil2" x1="87.79" y1="207.59" x2="87.79" y2="209.81" />
      <line class="fil2" x1="82.39" y1="201.4" x2="87.79" y2="204.21" />
      <line class="fil2" x1="82.39" y1="201.4" x2="85.21" y2="200.65" />
      <line class="fil2" x1="82.39" y1="199.18" x2="87.79" y2="201.99" />
      <line class="fil2" x1="87.79" y1="201.99" x2="87.79" y2="204.21" />
      <line class="fil2" x1="82.39" y1="195.8" x2="87.79" y2="198.61" />
      <line class="fil2" x1="82.39" y1="195.8" x2="85.21" y2="195.05" />
      <line class="fil2" x1="82.39" y1="193.58" x2="87.79" y2="196.39" />
      <line class="fil2" x1="87.79" y1="196.39" x2="87.79" y2="198.61" />
      <line class="fil2" x1="82.39" y1="190.2" x2="87.79" y2="193.01" />
      <line class="fil2" x1="82.39" y1="190.2" x2="85.21" y2="189.45" />
      <line class="fil2" x1="82.39" y1="187.99" x2="87.79" y2="190.79" />
      <line class="fil2" x1="87.79" y1="190.79" x2="87.79" y2="193.01" />
      <line class="fil2" x1="82.39" y1="184.61" x2="87.79" y2="187.41" />
      <line class="fil2" x1="82.39" y1="184.61" x2="85.21" y2="183.85" />
      <line class="fil2" x1="82.39" y1="182.39" x2="87.79" y2="185.19" />
      <line class="fil2" x1="87.79" y1="185.19" x2="87.79" y2="187.41" />
      <line class="fil2" x1="82.39" y1="179.01" x2="87.79" y2="181.81" />
      <line class="fil2" x1="82.39" y1="179.01" x2="85.21" y2="178.25" />
      <line class="fil2" x1="82.39" y1="176.79" x2="87.79" y2="179.59" />
      <line class="fil2" x1="87.79" y1="179.59" x2="87.79" y2="181.81" />
      <line class="fil2" x1="82.39" y1="173.41" x2="87.79" y2="176.21" />
      <line class="fil2" x1="82.39" y1="173.41" x2="85.21" y2="172.65" />
      <line class="fil2" x1="82.39" y1="171.19" x2="87.79" y2="173.99" />
      <line class="fil2" x1="87.79" y1="173.99" x2="87.79" y2="176.21" />
      <line class="fil2" x1="82.39" y1="167.81" x2="87.79" y2="170.61" />
      <line class="fil2" x1="82.39" y1="167.81" x2="85.21" y2="167.05" />
      <line class="fil2" x1="82.39" y1="165.59" x2="87.79" y2="168.39" />
      <line class="fil2" x1="87.79" y1="168.39" x2="87.79" y2="170.61" />
      <line class="fil2" x1="82.39" y1="162.21" x2="87.79" y2="165.01" />
      <line class="fil2" x1="82.39" y1="162.21" x2="85.21" y2="161.45" />
      <line class="fil2" x1="82.39" y1="159.99" x2="87.79" y2="162.79" />
      <line class="fil2" x1="87.79" y1="162.79" x2="87.79" y2="165.01" />
      <line class="fil2" x1="82.39" y1="156.61" x2="87.79" y2="159.41" />
      <line class="fil2" x1="82.39" y1="156.61" x2="85.21" y2="155.85" />
      <line class="fil2" x1="82.39" y1="154.39" x2="87.79" y2="157.19" />
      <line class="fil2" x1="87.79" y1="157.19" x2="87.79" y2="159.41" />
      <line class="fil2" x1="82.39" y1="151.01" x2="87.79" y2="153.81" />
      <line class="fil2" x1="82.39" y1="151.01" x2="85.21" y2="150.25" />
      <line class="fil2" x1="82.39" y1="148.79" x2="87.79" y2="151.59" />
      <line class="fil2" x1="87.79" y1="151.59" x2="87.79" y2="153.81" />
      <line class="fil2" x1="82.39" y1="145.41" x2="87.79" y2="148.21" />
      <line class="fil2" x1="82.39" y1="145.41" x2="85.21" y2="144.65" />
      <line class="fil2" x1="82.39" y1="143.19" x2="87.79" y2="145.99" />
      <line class="fil2" x1="87.79" y1="145.99" x2="87.79" y2="148.21" />
      <line class="fil2" x1="82.39" y1="139.81" x2="87.79" y2="142.61" />
      <line class="fil2" x1="82.39" y1="139.81" x2="85.21" y2="139.05" />
      <line class="fil2" x1="82.39" y1="137.59" x2="87.79" y2="140.39" />
      <line class="fil2" x1="87.79" y1="140.39" x2="87.79" y2="142.61" />
      <line class="fil2" x1="82.39" y1="134.21" x2="87.79" y2="137.01" />
      <line class="fil2" x1="82.39" y1="134.21" x2="85.21" y2="133.45" />
      <line class="fil2" x1="82.39" y1="131.99" x2="87.79" y2="134.79" />
      <line class="fil2" x1="87.79" y1="134.79" x2="87.79" y2="137.01" />
      <line class="fil2" x1="82.39" y1="128.61" x2="87.79" y2="131.41" />
      <line class="fil2" x1="82.39" y1="128.61" x2="85.21" y2="127.85" />
      <line class="fil2" x1="82.39" y1="126.39" x2="87.79" y2="129.19" />
      <line class="fil2" x1="87.79" y1="129.19" x2="87.79" y2="131.41" />
      <line class="fil2" x1="82.39" y1="123.01" x2="87.79" y2="125.81" />
      <line class="fil2" x1="82.39" y1="123.01" x2="85.21" y2="122.26" />
      <line class="fil2" x1="82.39" y1="120.79" x2="87.79" y2="123.59" />
      <line class="fil2" x1="87.79" y1="123.59" x2="87.79" y2="125.81" />
      <line class="fil2" x1="82.39" y1="212.6" x2="82.39" y2="219.8" />
      <line class="fil2" x1="82.39" y1="210.38" x2="82.39" y2="207" />
      <line class="fil2" x1="82.39" y1="204.78" x2="82.39" y2="201.4" />
      <line class="fil2" x1="82.39" y1="199.18" x2="82.39" y2="195.8" />
      <line class="fil2" x1="82.39" y1="193.58" x2="82.39" y2="190.2" />
      <line class="fil2" x1="82.39" y1="187.99" x2="82.39" y2="184.61" />
      <line class="fil2" x1="82.39" y1="182.39" x2="82.39" y2="179.01" />
      <line class="fil2" x1="82.39" y1="176.79" x2="82.39" y2="173.41" />
      <line class="fil2" x1="82.39" y1="171.19" x2="82.39" y2="167.81" />
      <line class="fil2" x1="82.39" y1="165.59" x2="82.39" y2="162.21" />
      <line class="fil2" x1="82.39" y1="159.99" x2="82.39" y2="156.61" />
      <line class="fil2" x1="82.39" y1="154.39" x2="82.39" y2="151.01" />
      <line class="fil2" x1="82.39" y1="148.79" x2="82.39" y2="145.41" />
      <line class="fil2" x1="82.39" y1="143.19" x2="82.39" y2="139.81" />
      <line class="fil2" x1="82.39" y1="137.59" x2="82.39" y2="134.21" />
      <line class="fil2" x1="82.39" y1="131.99" x2="82.39" y2="128.61" />
      <line class="fil2" x1="82.39" y1="126.39" x2="82.39" y2="123.01" />
      <line class="fil2" x1="113.35" y1="74.28" x2="91.78" y2="63.06" />
      <line class="fil2" x1="88.37" y1="64.15" x2="109.94" y2="75.37" />
      <line class="fil2" x1="109.94" y1="99.68" x2="113.35" y2="98.59" />
      <line class="fil2" x1="88.37" y1="88.46" x2="88.37" y2="64.15" />
      <line class="fil2" x1="109.94" y1="75.37" x2="113.35" y2="74.28" />
      <line class="fil2" x1="88.37" y1="64.15" x2="91.78" y2="63.06" />
      <line class="fil2" x1="88.37" y1="88.46" x2="109.94" y2="99.68" />
      <line class="fil2" x1="109.94" y1="99.68" x2="109.94" y2="75.37" />
      <line class="fil2" x1="113.35" y1="74.28" x2="113.35" y2="98.59" />
      <polygon class="fil3"
        points="87.79,123.59 87.79,125.81 82.39,123.01 82.39,126.39 87.79,129.19 87.79,131.41 82.39,128.61 82.39,131.99 87.79,134.79 87.79,137.01 82.39,134.21 82.39,137.59 87.79,140.39 87.79,142.61 82.39,139.81 82.39,143.19 87.79,145.99 87.79,148.21 82.39,145.41 82.39,148.79 87.79,151.59 87.79,153.81 82.39,151.01 82.39,154.39 87.79,157.19 87.79,159.41 82.39,156.61 82.39,159.99 87.79,162.79 87.79,165.01 82.39,162.21 82.39,165.59 87.79,168.39 87.79,170.61 82.39,167.81 82.39,171.19 87.79,173.99 87.79,176.21 82.39,173.41 82.39,176.79 87.79,179.59 87.79,181.81 82.39,179.01 82.39,182.39 87.79,185.19 87.79,187.41 82.39,184.61 82.39,187.99 87.79,190.79 87.79,193.01 82.39,190.2 82.39,193.58 87.79,196.39 87.79,198.61 82.39,195.8 82.39,199.18 87.79,201.99 87.79,204.21 82.39,201.4 82.39,204.78 87.79,207.59 87.79,209.81 82.39,207 82.39,210.38 87.79,213.19 87.79,215.41 82.39,212.6 82.39,219.8 125.53,242.23 125.53,48.09 82.39,25.66 82.39,120.79 " />
      <path class="fil4" d="M125.53 48.09l0 194.14c42.12,-8.55 84.25,-17.1 126.37,-25.66l0 -194.14 -126.37 25.66z" />
      <g>
        <rect class="fil2" transform="matrix(0.349993 -0.0710549 -0 0.349992 146.531 217.871)" width="11.48"
          height="11.48" />
        <rect class="fil2" transform="matrix(0.349993 -0.0710549 -0 0.349992 154.568 216.24)" width="11.48"
          height="11.48" />
        <rect class="fil2" transform="matrix(0.349993 -0.0710549 -0 0.349992 162.604 214.608)" width="11.48"
          height="11.48" />
        <rect class="fil2" transform="matrix(0.349993 -0.0710549 -0 0.349992 170.64 212.977)" width="11.48"
          height="11.48" />
        <rect class="fil2" transform="matrix(0.349993 -0.0710549 -0 0.349992 178.676 211.345)" width="11.48"
          height="11.48" />
        <rect class="fil2" transform="matrix(0.349993 -0.0710549 -0 0.349992 150.549 225.093)" width="11.48"
          height="11.48" />
        <rect class="fil2" transform="matrix(0.349993 -0.0710549 -0 0.349992 158.586 223.461)" width="11.48"
          height="11.48" />
        <rect class="fil2" transform="matrix(0.349993 -0.0710549 -0 0.349992 166.622 221.83)" width="11.48"
          height="11.48" />
        <rect class="fil2" transform="matrix(0.349993 -0.0710549 -0 0.349992 174.658 220.198)" width="11.48"
          height="11.48" />
        <rect class="fil2" transform="matrix(0.349993 -0.0710549 -0 0.349992 182.694 218.567)" width="11.48"
          height="11.48" />
        <rect class="fil2" transform="matrix(0.349993 -0.0710549 -0 0.349992 190.731 216.935)" width="11.48"
          height="11.48" />
        <rect class="fil2" transform="matrix(0.349993 -0.0710549 -0 0.349992 198.767 215.304)" width="11.48"
          height="11.48" />
        <rect class="fil2" transform="matrix(0.349993 -0.0710549 -0 0.349992 206.803 213.672)" width="11.48"
          height="11.48" />
        <rect class="fil2" transform="matrix(0.349993 -0.0710549 -0 0.349992 214.839 212.041)" width="11.48"
          height="11.48" />
        <rect class="fil2" transform="matrix(0.349993 -0.0710549 -0 0.349992 222.876 210.409)" width="11.48"
          height="11.48" />
        <polygon class="fil5" points="226.89,209.59 222.88,210.41 222.88,214.43 226.89,213.61 " />
        <polygon class="fil5" points="218.86,215.24 218.86,211.23 214.84,212.04 214.84,216.06 " />
        <polygon class="fil5" points="210.82,208.84 214.84,208.02 214.84,204 210.82,204.82 " />
        <polygon class="fil5" points="218.86,203.19 218.86,207.21 222.88,206.39 222.88,202.37 " />
        <polygon class="fil5" points="226.89,201.56 226.89,205.57 230.91,204.76 230.91,200.74 " />
        <polygon class="fil5" points="206.8,209.65 206.8,205.64 202.79,206.45 202.79,210.47 " />
        <polygon class="fil5" points="210.82,212.86 206.8,213.67 206.8,217.69 210.82,216.88 " />
        <polygon class="fil5" points="202.79,218.51 202.79,214.49 198.77,215.3 198.77,219.32 " />
        <polygon class="fil5" points="194.75,212.1 198.77,211.29 198.77,207.27 194.75,208.08 " />
        <polygon class="fil5" points="194.75,216.12 190.73,216.94 190.73,220.95 194.75,220.14 " />
        <polygon class="fil5" points="186.71,213.73 190.73,212.92 190.73,208.9 186.71,209.71 " />
        <polygon class="fil5" points="186.71,217.75 182.69,218.57 182.69,222.59 186.71,221.77 " />
        <polygon class="fil5" points="178.68,215.36 182.69,214.55 182.69,210.53 178.68,211.35 " />
        <polygon class="fil5" points="178.68,219.38 174.66,220.2 174.66,224.22 178.68,223.4 " />
        <polygon class="fil5" points="170.64,217 174.66,216.18 174.66,212.16 170.64,212.98 " />
        <polygon class="fil5" points="170.64,221.01 166.62,221.83 166.62,225.85 170.64,225.03 " />
        <polygon class="fil5" points="162.6,218.63 166.62,217.81 166.62,213.79 162.6,214.61 " />
        <polygon class="fil5" points="162.6,222.65 158.59,223.46 158.59,227.48 162.6,226.66 " />
        <polygon class="fil5" points="154.57,220.26 158.59,219.44 158.59,215.42 154.57,216.24 " />
        <polygon class="fil5" points="154.57,224.28 150.55,225.09 150.55,229.11 154.57,228.3 " />
        <polygon class="fil5" points="146.53,221.89 150.55,221.07 150.55,217.06 146.53,217.87 " />
      </g>
      <polygon class="fil6" points="138.13,142.16 239.31,121.62 239.31,34.5 138.13,55.04 " />
      <polygon class="fil1" points="125.53,48.09 251.91,22.43 208.77,0 82.39,25.66 " />
      <rect class="fil2" transform="matrix(0.349993 -0.0710549 -0 0.349992 168.218 172.799)" width="11.48"
        height="11.48" />
      <rect class="fil2" transform="matrix(0.349992 -0.0710547 -0 0.349993 179.7 181.95)" width="11.48"
        height="11.48" />
      <rect class="fil2" transform="matrix(0.349992 -0.0710547 -0 0.349993 156.736 186.612)" width="11.48"
        height="11.48" />
      <rect class="fil2" transform="matrix(0.349993 -0.0710549 -0 0.349992 168.218 195.762)" width="11.48"
        height="11.48" />
      <line class="fil2" x1="149.58" y1="182.18" x2="153" y2="183.64" />
      <line class="fil2" x1="161.06" y1="179.85" x2="164.49" y2="181.31" />
      <line class="fil2" x1="149.58" y1="193.66" x2="153" y2="195.12" />
      <line class="fil2" x1="149.58" y1="182.18" x2="161.06" y2="179.85" />
      <line class="fil2" x1="161.06" y1="168.36" x2="172.54" y2="166.03" />
      <line class="fil2" x1="149.58" y1="182.18" x2="149.58" y2="193.66" />
      <line class="fil2" x1="153" y1="195.12" x2="153" y2="183.64" />
      <line class="fil2" x1="161.06" y1="168.36" x2="161.06" y2="179.85" />
      <line class="fil2" x1="164.49" y1="169.82" x2="164.49" y2="181.31" />
      <line class="fil2" x1="153" y1="183.64" x2="164.49" y2="181.31" />
      <line class="fil2" x1="164.49" y1="169.82" x2="175.97" y2="167.49" />
      <line class="fil2" x1="153" y1="195.12" x2="164.49" y2="192.79" />
      <line class="fil2" x1="164.49" y1="204.27" x2="175.97" y2="201.94" />
      <line class="fil2" x1="161.06" y1="202.81" x2="161.06" y2="193.48" />
      <line class="fil2" x1="175.97" y1="167.49" x2="175.97" y2="178.98" />
      <line class="fil2" x1="175.97" y1="176.82" x2="184.02" y2="175.19" />
      <line class="fil2" x1="175.97" y1="178.98" x2="187.45" y2="176.64" />
      <line class="fil2" x1="175.97" y1="190.46" x2="187.45" y2="188.13" />
      <line class="fil2" x1="184.02" y1="175.19" x2="187.45" y2="176.64" />
      <line class="fil2" x1="187.45" y1="176.64" x2="187.45" y2="188.13" />
      <line class="fil2" x1="164.49" y1="192.79" x2="164.49" y2="204.27" />
      <line class="fil2" x1="175.97" y1="190.46" x2="175.97" y2="201.94" />
      <line class="fil2" x1="161.06" y1="202.81" x2="164.49" y2="204.27" />
      <line class="fil2" x1="172.54" y1="166.03" x2="175.97" y2="167.49" />
      <polygon class="fil7"
        points="201.03,183.21 201.03,194.7 204.46,196.15 215.94,193.82 215.94,182.34 212.51,180.88 " />
      <polygon class="fil7"
        points="161.06,168.36 161.06,179.85 149.58,182.18 149.58,193.66 153,195.12 161.06,193.48 161.06,202.81 164.49,204.27 175.97,201.94 175.97,190.46 187.45,188.13 187.45,176.64 184.02,175.19 175.97,176.82 175.97,167.49 172.54,166.03 " />
      <polygon class="fil8" points="153,183.64 149.58,182.18 149.58,193.66 153,195.12 " />
      <polygon class="fil9" points="149.58,182.18 153,183.64 164.49,181.31 161.06,179.85 " />
      <line class="fil2" x1="161.06" y1="168.36" x2="164.49" y2="169.82" />
      <polygon class="fil8" points="164.49,192.79 161.06,193.48 161.06,202.81 164.49,204.27 " />
      <g>
        <polygon class="fil7"
          points="164.49,169.82 164.49,181.31 153,183.64 153,195.12 161.06,193.48 164.49,192.79 164.49,204.27 175.97,201.94 175.97,190.46 187.45,188.13 187.45,176.64 175.97,178.98 175.97,176.82 175.97,167.49 " />
        <polygon class="fil8" points="161.06,179.85 164.49,181.31 164.49,169.82 161.06,168.36 " />
      </g>
      <polygon class="fil9" points="164.49,169.82 175.97,167.49 172.54,166.03 161.06,168.36 " />
      <polygon class="fil9" points="184.02,175.19 175.97,176.82 175.97,178.98 187.45,176.64 " />
      <polygon class="fil9" points="172.24,194.95 168.22,195.76 168.22,199.78 172.24,198.96 " />
      <polygon class="fil9" points="160.75,189.81 160.75,185.8 156.74,186.61 156.74,190.63 " />
      <polygon class="fil9" points="168.22,176.82 172.24,176 172.24,171.98 168.22,172.8 " />
      <polygon class="fil9" points="179.7,181.95 179.7,185.97 183.72,185.15 183.72,181.13 " />
      <polygon class="fil10" points="87.79,123.59 85.21,122.26 82.39,123.01 87.79,125.81 " />
      <polygon class="fil10" points="87.79,129.19 85.21,127.85 82.39,128.61 87.79,131.41 " />
      <polygon class="fil10" points="87.79,134.79 85.21,133.45 82.39,134.21 87.79,137.01 " />
      <polygon class="fil10" points="87.79,140.39 85.21,139.05 82.39,139.81 87.79,142.61 " />
      <polygon class="fil10" points="87.79,145.99 85.21,144.65 82.39,145.41 87.79,148.21 " />
      <polygon class="fil10" points="87.79,151.59 85.21,150.25 82.39,151.01 87.79,153.81 " />
      <polygon class="fil10" points="87.79,157.19 85.21,155.85 82.39,156.61 87.79,159.41 " />
      <polygon class="fil10" points="87.79,168.39 85.21,167.05 82.39,167.81 87.79,170.61 " />
      <polygon class="fil10" points="82.39,162.21 87.79,165.01 87.79,162.79 85.21,161.45 " />
      <polygon class="fil10" points="87.79,173.99 85.21,172.65 82.39,173.41 87.79,176.21 " />
      <polygon class="fil10" points="87.79,179.59 85.21,178.25 82.39,179.01 87.79,181.81 " />
      <polygon class="fil10" points="87.79,185.19 85.21,183.85 82.39,184.61 87.79,187.41 " />
      <polygon class="fil10" points="87.79,190.79 85.21,189.45 82.39,190.2 87.79,193.01 " />
      <polygon class="fil10" points="87.79,201.99 85.21,200.65 82.39,201.4 87.79,204.21 " />
      <polygon class="fil10" points="82.39,195.8 87.79,198.61 87.79,196.39 85.21,195.05 " />
      <polygon class="fil10" points="87.79,207.59 85.21,206.25 82.39,207 87.79,209.81 " />
      <polygon class="fil10" points="87.79,213.19 85.21,211.85 82.39,212.6 87.79,215.41 " />
      <g>
        <polygon class="fil8" points="201.03,183.21 201.03,194.7 204.46,196.15 204.46,184.67 " />
        <polygon class="fil7" points="204.46,184.67 204.46,196.15 215.94,193.82 215.94,182.34 " />
        <polygon class="fil9" points="204.46,184.67 215.94,182.34 212.51,180.88 201.03,183.21 " />
      </g>
      <polygon class="fil7"
        points="216.53,157.1 216.53,168.59 219.96,170.05 231.44,167.71 231.44,156.23 228.01,154.77 " />
      <g>
        <polygon class="fil8" points="216.53,157.1 216.53,168.59 219.96,170.05 219.96,158.56 " />
        <polygon class="fil7" points="219.96,158.56 219.96,170.05 231.44,167.71 231.44,156.23 " />
        <polygon class="fil9" points="219.96,158.56 231.44,156.23 228.01,154.77 216.53,157.1 " />
      </g>
      <polygon class="fil7"
        points="214.03,148.71 225.51,146.38 225.51,142.65 222.09,141.19 210.61,143.52 210.61,147.25 " />
      <g>
        <polygon class="fil7" points="214.03,148.71 225.51,146.38 225.51,142.65 214.03,144.98 " />
        <polygon class="fil8" points="214.03,148.71 214.03,144.98 210.61,143.52 210.61,147.25 " />
        <polygon class="fil9" points="214.03,144.98 225.51,142.65 222.09,141.19 210.61,143.52 " />
      </g>
      <polygon class="fil7"
        points="227.83,140.02 227.83,143.75 231.26,145.21 242.74,142.88 242.74,139.15 239.31,137.69 " />
      <g>
        <polygon class="fil7" points="231.26,141.48 231.26,145.21 242.74,142.88 242.74,139.15 " />
        <polygon class="fil8" points="231.26,145.21 231.26,141.48 227.83,140.02 227.83,143.75 " />
        <polygon class="fil9" points="231.26,141.48 242.74,139.15 239.31,137.69 227.83,140.02 " />
      </g>
      <polygon class="fil7"
        points="153.04,157.32 149.61,155.9 138.13,158.19 138.13,161.96 141.56,163.42 153.04,161.09 " />
      <g>
        <polygon class="fil7" points="153.04,157.36 141.56,159.69 141.56,163.42 153.04,161.09 " />
        <polygon class="fil8" points="138.13,161.96 141.56,163.42 141.56,159.69 138.13,158.23 " />
        <polygon class="fil9" points="141.56,159.69 153.04,157.36 149.61,155.9 138.13,158.23 " />
      </g>
      <polygon class="fil7"
        points="155.36,154.74 155.36,158.47 158.78,159.93 164.52,158.76 164.52,155.03 161.1,153.57 " />
      <g>
        <polygon class="fil9" points="164.52,155.03 161.1,153.57 155.36,154.74 158.78,156.19 " />
        <polygon class="fil8" points="158.78,159.93 158.78,156.19 155.36,154.74 155.36,158.47 " />
        <polygon class="fil7" points="158.78,156.19 158.78,159.93 164.52,158.76 164.52,155.03 " />
      </g>
      <polygon class="fil7" points="113.35,74.28 91.78,63.06 88.37,64.15 88.37,88.46 109.94,99.68 113.35,98.59 " />
      <g>
        <polygon class="fil9" points="113.35,98.59 113.35,74.28 109.94,75.37 109.94,99.68 " />
        <polygon class="fil9" points="88.37,64.15 109.94,75.37 113.35,74.28 91.78,63.06 " />
        <polygon class="fil7" points="109.94,75.37 88.37,64.15 88.37,88.46 109.94,99.68 " />
      </g>
      <polygon class="fil11"
        points="182.28,253.12 202.15,263.67 226.39,258.75 226.39,240.89 220.14,237.57 220.14,223.02 182.28,230.71 " />
      <polygon class="fil11"
        points="169.04,247.94 169.04,233.4 131.18,241.08 131.18,263.5 151.05,274.04 175.29,269.12 175.29,251.26 " />
      <polygon class="fil12" points="175.29,251.26 169.04,247.94 144.8,252.86 151.05,256.18 " />
      <polygon class="fil12" points="195.9,242.49 202.15,245.81 226.39,240.89 220.14,237.57 " />
      <g>
        <g>
          <line class="fil2" x1="226.39" y1="258.75" x2="226.39" y2="240.89" />
          <line class="fil2" x1="195.9" y1="242.49" x2="195.9" y2="227.94" />
          <line class="fil2" x1="220.14" y1="237.57" x2="220.14" y2="223.02" />
          <line class="fil2" x1="182.28" y1="253.12" x2="182.28" y2="230.71" />
          <line class="fil2" x1="202.15" y1="263.67" x2="226.39" y2="258.75" />
          <line class="fil2" x1="195.9" y1="242.49" x2="220.14" y2="237.57" />
          <line class="fil2" x1="195.9" y1="242.49" x2="202.15" y2="245.81" />
          <line class="fil2" x1="226.39" y1="240.89" x2="220.14" y2="237.57" />
          <line class="fil2" x1="202.15" y1="263.67" x2="226.39" y2="258.75" />
          <line class="fil2" x1="202.15" y1="263.67" x2="202.15" y2="245.81" />
          <line class="fil2" x1="226.39" y1="240.89" x2="226.39" y2="258.75" />
          <line class="fil2" x1="182.28" y1="253.12" x2="202.15" y2="263.67" />
          <line class="fil2" x1="202.15" y1="245.81" x2="226.39" y2="240.89" />
        </g>
        <g>
          <line class="fil2" x1="175.29" y1="269.12" x2="175.29" y2="251.26" />
          <line class="fil2" x1="144.8" y1="252.86" x2="144.8" y2="238.32" />
          <line class="fil2" x1="169.04" y1="247.94" x2="169.04" y2="233.4" />
          <line class="fil2" x1="131.18" y1="263.5" x2="131.18" y2="241.08" />
          <line class="fil2" x1="151.05" y1="274.04" x2="175.29" y2="269.12" />
          <line class="fil2" x1="144.8" y1="252.86" x2="169.04" y2="247.94" />
          <line class="fil2" x1="144.8" y1="252.86" x2="151.05" y2="256.18" />
          <line class="fil2" x1="175.29" y1="251.26" x2="169.04" y2="247.94" />
          <line class="fil2" x1="151.05" y1="274.04" x2="175.29" y2="269.12" />
          <line class="fil2" x1="151.05" y1="274.04" x2="151.05" y2="256.18" />
          <line class="fil2" x1="175.29" y1="251.26" x2="175.29" y2="269.12" />
          <line class="fil2" x1="131.18" y1="263.5" x2="151.05" y2="274.04" />
          <line class="fil2" x1="151.05" y1="256.18" x2="175.29" y2="251.26" />
        </g>
        <polygon class="fil13" points="226.39,240.89 202.15,245.81 202.15,263.67 226.39,258.75 " />
        <polygon class="fil13" points="175.29,269.12 175.29,251.26 151.05,256.18 151.05,274.04 " />
        <polygon class="fil11"
          points="144.8,238.32 131.18,241.08 131.18,263.5 151.05,274.04 151.05,256.18 144.8,252.86 " />
        <polygon class="fil11"
          points="182.28,230.71 182.28,253.12 202.15,263.67 202.15,245.81 195.9,242.49 195.9,227.94 " />
        <polygon class="fil14" points="195.9,242.49 220.14,237.57 220.14,223.02 195.9,227.94 " />
        <polygon class="fil14" points="169.04,247.94 169.04,233.4 144.8,238.32 144.8,252.86 " />
      </g>
      <polygon class="fil10" points="149.43,130.14 228.01,114.19 228.01,46.52 149.43,62.48 " />
      <rect class="fil2" transform="matrix(0.700007 -0.142114 -0 0.699964 167.294 84.7477)" width="11.48"
        height="11.48" />
      <rect class="fil2" transform="matrix(0.700007 -0.142114 -0 0.699964 202.112 77.6789)" width="11.48"
        height="11.48" />
      <polygon class="fil15" points="167.29,92.78 175.33,91.15 175.33,83.12 167.29,84.75 " />
      <polygon class="fil15" points="202.11,77.68 202.11,85.72 210.15,84.08 210.15,76.05 " />
    </g>
  </g>
</svg>