<?xml version="1.0" encoding="UTF-8"?>
<!DOCTYPE svg PUBLIC "-//W3C//DTD SVG 1.1//EN" "http://www.w3.org/Graphics/SVG/1.1/DTD/svg11.dtd">
<!-- Creator: CorelDRAW 2019 (64-Bit) -->
<svg xmlns="http://www.w3.org/2000/svg" xml:space="preserve" width="5.3278in" height="5.32583in" version="1.1" style="shape-rendering:geometricPrecision; text-rendering:geometricPrecision; image-rendering:optimizeQuality; fill-rule:evenodd; clip-rule:evenodd"
viewBox="0 0 1306.47 1305.99"
 xmlns:xlink="http://www.w3.org/1999/xlink"
 xmlns:xodm="http://www.corel.com/coreldraw/odm/2003">
 <defs>
  <style type="text/css">
   <![CDATA[
    .fil0 {fill:#1F1B20;fill-rule:nonzero}
   ]]>
  </style>
 </defs>
 <g id="Слой_x0020_1">
  <metadata id="CorelCorpID_0Corel-Layer"/>
  <g id="_2807655739168">
   <path class="fil0" d="M653.23 204.52c7.18,0 14.33,0.18 21.43,0.51l0 -144.1c0,-5.87 -2.42,-11.22 -6.31,-15.12 -3.89,-3.89 -9.25,-6.31 -15.12,-6.31 -5.87,0 -11.22,2.42 -15.12,6.31 -3.89,3.89 -6.31,9.25 -6.31,15.12l0 144.1c7.1,-0.34 14.24,-0.51 21.43,-0.51zm0 1101.47c-22.42,0 -42.73,-9.09 -57.42,-23.79 -14.7,-14.7 -23.79,-35 -23.79,-57.42 0,-22.42 9.09,-42.73 23.79,-57.42 10.27,-10.27 23.28,-17.8 37.84,-21.41l0 -44.42c-94.38,-4.05 -181.2,-37.26 -251.69,-90.85l-104.46 104.46c-11.87,11.87 -27.48,17.8 -43.09,17.8 -15.6,0 -31.22,-5.93 -43.09,-17.8 -11.87,-11.87 -17.8,-27.48 -17.8,-43.09 0,-15.6 5.93,-31.22 17.8,-43.09l104.46 -104.46c-45.66,-60.07 -76.53,-131.99 -87.17,-210.34l-147.69 0c-16.78,0 -32.02,-6.85 -43.05,-17.88 -11.03,-11.03 -17.88,-26.27 -17.88,-43.05 0,-16.78 6.85,-32.02 17.88,-43.05 11.03,-11.03 26.27,-17.88 43.05,-17.88l147.69 0c10.64,-78.35 41.51,-150.27 87.17,-210.34l-104.46 -104.46c-11.87,-11.87 -17.8,-27.48 -17.8,-43.08 0,-15.6 5.93,-31.22 17.8,-43.09 11.87,-11.87 27.48,-17.8 43.08,-17.8 15.6,0 31.22,5.93 43.08,17.8l104.46 104.46c60.07,-45.66 131.99,-76.52 210.34,-87.16l0 -147.69c0,-16.78 6.85,-32.02 17.88,-43.05 11.03,-11.03 26.27,-17.88 43.05,-17.88 16.78,0 32.02,6.85 43.05,17.88 11.03,11.03 17.88,26.27 17.88,43.05l0 147.69c78.35,10.64 150.28,41.5 210.34,87.16l104.46 -104.46c11.87,-11.87 27.48,-17.8 43.09,-17.8 15.6,0 31.22,5.93 43.08,17.8 11.87,11.87 17.8,27.48 17.8,43.09 0,15.6 -5.93,31.22 -17.8,43.08l-104.46 104.46c45.66,60.07 76.52,131.99 87.16,210.34l147.69 0c16.78,0 32.02,6.85 43.05,17.88 11.03,11.04 17.88,26.27 17.88,43.05 0,16.78 -6.85,32.02 -17.88,43.05 -11.03,11.03 -26.27,17.88 -43.05,17.88l-147.69 0c-10.64,78.35 -41.51,150.27 -87.17,210.34l104.46 104.46c11.87,11.87 17.8,27.48 17.8,43.09 0,15.6 -5.93,31.22 -17.8,43.09 -11.87,11.87 -27.48,17.8 -43.09,17.8 -15.6,0 -31.22,-5.93 -43.09,-17.8l-104.46 -104.46c-70.49,53.58 -157.31,86.79 -251.69,90.85l0 44.42c14.56,3.61 27.57,11.14 37.84,21.41 14.7,14.7 23.79,35 23.79,57.42 0,22.42 -9.09,42.73 -23.79,57.42 -14.7,14.7 -35,23.79 -57.42,23.79zm-29.73 -51.48c7.61,7.61 18.12,12.31 29.73,12.31 11.61,0 22.12,-4.71 29.73,-12.31 7.61,-7.61 12.31,-18.12 12.31,-29.73 0,-11.61 -4.71,-22.12 -12.31,-29.73 -7.61,-7.61 -18.12,-12.31 -29.73,-12.31 -11.61,0 -22.12,4.71 -29.73,12.31 -7.61,7.61 -12.31,18.12 -12.31,29.73 0,11.61 4.71,22.12 12.31,29.73zm-375.31 -662.21l0 0c-1.94,12.98 -3.27,26.16 -3.96,39.51l-0 0 -0.02 0.33 -0.01 0.22c-0.08,1.64 -0.16,3.29 -0.22,4.94l-0 0.11 -0 0.07 -0 0.05c-0.06,1.71 -0.12,3.43 -0.16,5.14l-0 0.16c-0.04,1.67 -0.07,3.35 -0.1,5.03l-0 0.09c-0.02,1.76 -0.03,3.53 -0.03,5.29 0,1.77 0.01,3.53 0.03,5.29l0 0.09c0.02,1.68 0.05,3.36 0.1,5.03l0 0.16c0.04,1.72 0.1,3.43 0.16,5.14l0 0.05 0 0.07 0 0.11c0.06,1.65 0.14,3.29 0.22,4.94l0.01 0.22 0.02 0.33 0 0c0.69,13.35 2.02,26.53 3.96,39.51l-0 0 0.03 0.16c0.14,0.9 0.27,1.8 0.41,2.7l0.2 1.25c0.24,1.5 0.49,3.01 0.74,4.5l0.23 1.32 0.47 2.67c0.19,1.05 0.38,2.09 0.58,3.13 0.16,0.84 0.32,1.68 0.49,2.53l0.27 1.35c0.36,1.81 0.73,3.62 1.12,5.42l0.01 0.06c0.22,1.02 0.44,2.04 0.67,3.06l0.04 0.17c0.42,1.87 0.84,3.73 1.28,5.59l0.17 0.72c0.69,2.89 1.41,5.76 2.16,8.63l0.19 0.72c0.48,1.83 0.98,3.65 1.48,5.47l0.06 0.21c0.28,0.99 0.56,1.97 0.84,2.96l0.03 0.11c0.54,1.88 1.1,3.76 1.67,5.63l0.17 0.54c0.87,2.86 1.78,5.71 2.71,8.55l0.15 0.47c1.59,4.82 3.28,9.59 5.04,14.32l0.08 0.2c1.06,2.83 2.15,5.65 3.27,8.46l0.21 0.53c0.66,1.64 1.33,3.27 2,4.9l0.28 0.66c1.14,2.72 2.3,5.42 3.5,8.11l0.23 0.51c1.2,2.7 2.44,5.39 3.7,8.07l0.22 0.45c0.76,1.62 1.54,3.22 2.33,4.83l0.3 0.61c1.28,2.61 2.59,5.2 3.93,7.77l0.34 0.65c1.35,2.59 2.73,5.17 4.13,7.73l0.23 0.41c0.85,1.55 1.72,3.1 2.59,4.64l0.36 0.64c1.45,2.54 2.92,5.07 4.42,7.57l0.27 0.45c1.53,2.55 3.09,5.09 4.67,7.6l0.02 0.03c1.03,1.63 2.07,3.26 3.12,4.87l0.28 0.43c1.6,2.45 3.22,4.88 4.87,7.3l0.35 0.52c1.07,1.56 2.15,3.12 3.25,4.67l0.05 0.07c1.75,2.48 3.53,4.95 5.34,7.39l0.04 0.05c7.88,10.66 16.27,20.91 25.12,30.74l0.22 0.25c0.66,0.74 1.33,1.47 2,2.2l0.03 0.03 0.23 0.25 0.91 0.99 0.23 0.25 0.06 0.06 1.54 1.65 0.23 0.24 1.61 1.71 0.23 0.24 0.02 0.03 1.02 1.07c0.93,0.97 1.87,1.94 2.81,2.91l0.27 0.28c1.11,1.14 2.23,2.27 3.36,3.4 1.11,1.11 2.22,2.2 3.34,3.3l0.16 0.16 0.08 0.08 0.01 0.01c1.01,0.99 2.03,1.97 3.05,2.94l1.01 0.96c0.73,0.7 1.47,1.39 2.21,2.08l1.49 1.39 0.25 0.23 0.25 0.23 0.99 0.91 0.25 0.23c0.74,0.68 1.48,1.35 2.23,2.03l0.25 0.22c13.74,12.38 28.33,23.85 43.66,34.3l0.04 0.02c1.08,0.73 2.15,1.46 3.24,2.18l0.1 0.07c4.36,2.91 8.79,5.74 13.27,8.49l0.1 0.06c1.07,0.65 2.14,1.3 3.22,1.95l0.32 0.2c1.08,0.65 2.17,1.29 3.26,1.93l0.01 0.01c4.48,2.63 9.02,5.17 13.6,7.63l0.6 0.32c1,0.53 2,1.06 3,1.59l0.8 0.42c3.23,1.68 6.49,3.32 9.77,4.92l0.46 0.23c1,0.49 2,0.96 3.01,1.44l0.89 0.42c0.98,0.46 1.97,0.92 2.96,1.38l0.93 0.43c3.22,1.48 6.46,2.92 9.73,4.32l0.77 0.33c0.91,0.39 1.83,0.77 2.75,1.15l1.4 0.58c0.86,0.35 1.71,0.7 2.57,1.05l1.59 0.64c0.86,0.35 1.73,0.69 2.6,1.03l0.88 0.34c2.04,0.79 4.08,1.57 6.14,2.33l0.75 0.28c0.9,0.33 1.8,0.66 2.7,0.98l1.58 0.57c0.86,0.31 1.73,0.61 2.6,0.91l1.59 0.55c0.89,0.3 1.77,0.61 2.66,0.91l1.39 0.46c1.68,0.56 3.36,1.1 5.04,1.64l1.64 0.52c0.82,0.26 1.64,0.51 2.47,0.76l1.85 0.56 2.51 0.75 1.93 0.56c0.77,0.22 1.53,0.44 2.3,0.66 0.9,0.25 1.79,0.5 2.69,0.75 0.56,0.16 1.13,0.31 1.69,0.47 1.37,0.37 2.74,0.73 4.11,1.08 0.74,0.19 1.49,0.38 2.23,0.57l2.27 0.57 2.17 0.53 2.44 0.58 2.11 0.49c0.83,0.19 1.66,0.37 2.49,0.56l2 0.45c1.45,0.31 2.89,0.62 4.34,0.92l1.53 0.31c0.99,0.2 1.99,0.4 2.99,0.59l1.98 0.38c0.89,0.17 1.78,0.33 2.67,0.49l1.97 0.35c1.03,0.18 2.06,0.36 3.09,0.53l1.46 0.25c1.5,0.25 3.01,0.49 4.52,0.72l1.42 0.21c1.11,0.17 2.21,0.33 3.32,0.49l1.65 0.23c1.02,0.14 2.05,0.28 3.08,0.41l1.81 0.23c1.04,0.13 2.09,0.26 3.13,0.38l1.56 0.18c1.54,0.17 3.09,0.34 4.63,0.5l1.04 0.1c1.23,0.12 2.45,0.24 3.68,0.35l1.71 0.15c1.05,0.09 2.09,0.18 3.14,0.26l1.76 0.14c1.1,0.08 2.2,0.16 3.31,0.23l1.47 0.1c1.56,0.1 3.13,0.19 4.7,0.27l0.15 0.01 0.59 0.03c1.37,0.07 2.75,0.13 4.12,0.18l1.59 0.06c1.13,0.04 2.26,0.08 3.39,0.11l1.57 0.04c1.15,0.03 2.31,0.05 3.46,0.07l1.51 0.02c1.61,0.02 3.22,0.03 4.84,0.03 1.61,0 3.23,-0.01 4.84,-0.03l1.51 -0.02c1.16,-0.02 2.31,-0.04 3.46,-0.07l1.57 -0.04c1.13,-0.03 2.26,-0.07 3.39,-0.11l1.59 -0.06c1.38,-0.05 2.75,-0.12 4.12,-0.18l0.59 -0.03 0.15 -0.01c1.57,-0.08 3.14,-0.17 4.7,-0.27l1.46 -0.1c1.11,-0.07 2.22,-0.15 3.33,-0.23l1.74 -0.13c1.05,-0.08 2.1,-0.17 3.15,-0.26l1.69 -0.15c1.24,-0.11 2.47,-0.23 3.7,-0.35l1.03 -0.1c1.55,-0.16 3.1,-0.33 4.65,-0.5l1.51 -0.18c1.06,-0.12 2.13,-0.25 3.19,-0.39l1.77 -0.23c1.04,-0.14 2.08,-0.27 3.12,-0.42l1.63 -0.22c1.11,-0.16 2.22,-0.32 3.33,-0.49l1.42 -0.21c1.51,-0.23 3.03,-0.47 4.53,-0.72l1.38 -0.23c1.06,-0.18 2.12,-0.36 3.17,-0.55l1.92 -0.34c0.91,-0.17 1.82,-0.33 2.72,-0.5l1.95 -0.37c1,-0.19 1.99,-0.39 2.99,-0.59 0.51,-0.1 1.02,-0.2 1.53,-0.31 1.46,-0.3 2.91,-0.61 4.36,-0.92 0.63,-0.14 1.26,-0.28 1.89,-0.42 0.87,-0.19 1.74,-0.39 2.61,-0.59l2.07 -0.48 2.45 -0.58c0.72,-0.17 1.44,-0.35 2.17,-0.53l2.27 -0.57c0.74,-0.19 1.49,-0.37 2.23,-0.57 1.37,-0.36 2.74,-0.72 4.11,-1.08 0.57,-0.15 1.13,-0.31 1.69,-0.47 0.9,-0.25 1.8,-0.49 2.7,-0.75 0.75,-0.21 1.5,-0.43 2.25,-0.64 0.67,-0.19 1.34,-0.39 2.01,-0.58l2.47 -0.73 1.86 -0.57c0.82,-0.25 1.65,-0.5 2.47,-0.76l1.64 -0.52c1.64,-0.52 3.28,-1.05 4.91,-1.59l1.56 -0.52c0.85,-0.29 1.7,-0.58 2.55,-0.87l1.71 -0.59c0.85,-0.3 1.7,-0.59 2.54,-0.9l1.61 -0.58c0.88,-0.32 1.76,-0.64 2.64,-0.96l1.01 -0.37c1.9,-0.71 3.8,-1.43 5.69,-2.16l1.15 -0.44c0.85,-0.33 1.69,-0.67 2.53,-1.01l1.62 -0.65c0.86,-0.35 1.72,-0.7 2.57,-1.05l1.42 -0.59c0.9,-0.37 1.8,-0.75 2.69,-1.13l1.01 -0.44c2.17,-0.93 4.34,-1.88 6.49,-2.85l0.02 -0.01c0.97,-0.43 1.93,-0.88 2.89,-1.32l1.1 -0.5c0.95,-0.44 1.89,-0.88 2.83,-1.32l1.05 -0.5c0.96,-0.46 1.92,-0.91 2.87,-1.38l0.67 -0.33c3.23,-1.57 6.43,-3.19 9.61,-4.84l0.8 -0.42c0.98,-0.51 1.95,-1.03 2.93,-1.55l0.76 -0.4c1.03,-0.55 2.06,-1.11 3.08,-1.67l0.19 -0.1c3.45,-1.89 6.86,-3.83 10.25,-5.81l0.01 -0.01c1.09,-0.64 2.18,-1.28 3.26,-1.93l0.33 -0.2c1.05,-0.63 2.11,-1.27 3.15,-1.91l0.31 -0.19c4.39,-2.7 8.73,-5.47 13.01,-8.33l0.29 -0.19c1.03,-0.69 2.06,-1.38 3.09,-2.08l0.26 -0.17c4.28,-2.92 8.51,-5.93 12.68,-9.01l0.08 -0.06c10.66,-7.88 20.91,-16.27 30.74,-25.12l0.25 -0.22 1.98 -1.8 0.25 -0.23 0.25 -0.23 1.23 -1.13 0.25 -0.23 1.39 -1.29c0.83,-0.78 1.66,-1.55 2.48,-2.34l0.84 -0.8c1.02,-0.98 2.04,-1.96 3.05,-2.94l0.01 -0.01 0.08 -0.08 0.16 -0.16c1.12,-1.09 2.23,-2.19 3.34,-3.3 1.11,-1.11 2.21,-2.22 3.3,-3.34l0.16 -0.16 0.08 -0.08 0.01 -0.01c0.99,-1.01 1.97,-2.03 2.94,-3.05l0.8 -0.84c0.78,-0.82 1.56,-1.65 2.34,-2.48l1.29 -1.39 0.23 -0.25 1.13 -1.23 0.23 -0.25 0.23 -0.25 1.8 -1.98 0.22 -0.25c8.86,-9.83 17.24,-20.09 25.12,-30.74l0.08 -0.11c2.92,-3.95 5.77,-7.95 8.54,-12l0.43 -0.63c1.63,-2.39 3.23,-4.79 4.81,-7.21l0.34 -0.53c1.01,-1.56 2.01,-3.12 3,-4.69l0.13 -0.21c0.53,-0.84 1.06,-1.68 1.58,-2.53l0.08 -0.14c0.99,-1.6 1.97,-3.21 2.94,-4.83l0.34 -0.57c1.5,-2.51 2.97,-5.03 4.42,-7.57l0.25 -0.45c0.93,-1.65 1.86,-3.3 2.77,-4.96l0.08 -0.15c1.43,-2.61 2.84,-5.24 4.21,-7.89l0.24 -0.46c1.36,-2.63 2.7,-5.27 4.01,-7.93l0.2 -0.41c0.83,-1.7 1.66,-3.41 2.47,-5.13l0.11 -0.23c1.29,-2.73 2.54,-5.47 3.77,-8.23l0.14 -0.32c1.21,-2.72 2.39,-5.46 3.54,-8.21l0.26 -0.64c0.68,-1.64 1.36,-3.29 2.02,-4.94l0.21 -0.52c1.12,-2.8 2.21,-5.62 3.27,-8.45l0.08 -0.21c1.78,-4.77 3.47,-9.57 5.07,-14.42l0.1 -0.31c0.94,-2.86 1.85,-5.73 2.74,-8.61l0.16 -0.54c0.57,-1.87 1.12,-3.74 1.67,-5.63l0.03 -0.11c0.28,-0.98 0.56,-1.97 0.84,-2.96l0.06 -0.21c0.51,-1.82 1,-3.64 1.48,-5.47l0.19 -0.72c0.75,-2.86 1.47,-5.74 2.16,-8.63l0.17 -0.72c0.45,-1.9 0.89,-3.81 1.31,-5.72l0 -0.01c0.23,-1.03 0.45,-2.06 0.67,-3.09l0.01 -0.06c0.39,-1.8 0.76,-3.61 1.12,-5.42l0.27 -1.35c0.17,-0.84 0.33,-1.68 0.49,-2.53 0.2,-1.04 0.39,-2.09 0.58,-3.13 0.16,-0.89 0.32,-1.78 0.47,-2.67l0.23 -1.32c0.26,-1.5 0.5,-3 0.74,-4.5l0.2 -1.25c0.14,-0.9 0.28,-1.8 0.41,-2.7l0.03 -0.16 -0 0c1.94,-12.98 3.27,-26.16 3.96,-39.51l0 0 0.02 -0.33 0.01 -0.22c0.08,-1.64 0.16,-3.29 0.22,-4.94l0 -0.1 0 -0.07 0 -0.04c0.06,-1.71 0.12,-3.43 0.16,-5.15l0 -0.16c0.04,-1.67 0.07,-3.35 0.1,-5.03l0 -0.09c0.02,-1.76 0.03,-3.53 0.03,-5.29 0,-1.77 -0.01,-3.53 -0.03,-5.29l-0 -0.09c-0.02,-1.68 -0.05,-3.36 -0.1,-5.03l-0 -0.16 -0 -0.18c-0.04,-1.56 -0.09,-3.12 -0.15,-4.68l-0.01 -0.33 -0 -0.07 -0.01 -0.26c-0.06,-1.59 -0.13,-3.19 -0.21,-4.78l-0.01 -0.22 -0.02 -0.33 -0 0c-0.69,-13.35 -2.02,-26.53 -3.96,-39.51l-0 -0.02c-0.15,-1 -0.3,-2 -0.46,-2.99l-0.1 -0.63c-0.28,-1.76 -0.57,-3.52 -0.87,-5.28l-0.15 -0.84c-0.51,-2.91 -1.04,-5.81 -1.61,-8.69l-0.18 -0.92c-0.99,-4.97 -2.06,-9.9 -3.23,-14.8l-0.07 -0.3c-0.72,-3.01 -1.47,-6.01 -2.26,-9l-0.05 -0.2c-0.52,-1.99 -1.06,-3.97 -1.61,-5.94l-0 -0.02c-0.85,-3.03 -1.73,-6.04 -2.64,-9.04l0 -0c-0.9,-2.95 -1.83,-5.89 -2.8,-8.82l-0.13 -0.39c-1.6,-4.83 -3.29,-9.63 -5.06,-14.38l-0.07 -0.19c-1.07,-2.86 -2.17,-5.7 -3.29,-8.52l-0.12 -0.3c-1.89,-4.71 -3.86,-9.38 -5.91,-14l-0.09 -0.21c-3.33,-7.48 -6.88,-14.84 -10.63,-22.07l-0.12 -0.23c-2.33,-4.48 -4.74,-8.92 -7.23,-13.3l-0.11 -0.19c-3.03,-5.33 -6.17,-10.58 -9.43,-15.75l-0.06 -0.1c-1.04,-1.65 -2.09,-3.29 -3.15,-4.92l-0.19 -0.29c-1.61,-2.47 -3.24,-4.91 -4.9,-7.34l-0.35 -0.51c-2.81,-4.11 -5.7,-8.16 -8.65,-12.15l-0.03 -0.04c-7.88,-10.66 -16.27,-20.92 -25.12,-30.74l-0.22 -0.25c-0.6,-0.66 -1.2,-1.32 -1.8,-1.98l-0.23 -0.25 -1.13 -1.23 -0.23 -0.25 -0.23 -0.25 -1.29 -1.39c-0.71,-0.76 -1.43,-1.52 -2.14,-2.28l-0.23 -0.24 -0.76 -0.8c-0.98,-1.02 -1.96,-2.04 -2.94,-3.05l-0.01 -0.01 -0.08 -0.08 -0.16 -0.16c-1.09,-1.12 -2.19,-2.23 -3.3,-3.34 -1.11,-1.11 -2.22,-2.2 -3.33,-3.3l-0.16 -0.16 -0.08 -0.08 -0.01 -0.01c-1.01,-0.99 -2.03,-1.97 -3.05,-2.94l-0.76 -0.73c-0.92,-0.87 -1.84,-1.74 -2.76,-2.6l-0.87 -0.81c-0.84,-0.78 -1.69,-1.56 -2.54,-2.33l-0.25 -0.23 -1.09 -0.99 -0.65 -0.59 -0 0c-9.83,-8.86 -20.09,-17.24 -30.74,-25.12l0 -0 -0.59 -0.43c-1.28,-0.95 -2.57,-1.88 -3.86,-2.81l-0.62 -0.45c-0.74,-0.53 -1.48,-1.06 -2.23,-1.59l-0.9 -0.63c-1.26,-0.89 -2.53,-1.77 -3.81,-2.64l-0.81 -0.55c-2.32,-1.58 -4.65,-3.14 -7,-4.67l-0.95 -0.62c-1.33,-0.86 -2.67,-1.72 -4.01,-2.57l-0.73 -0.46c-0.77,-0.49 -1.55,-0.97 -2.32,-1.45l-0.73 -0.45c-1.37,-0.85 -2.75,-1.69 -4.13,-2.52l-0.9 -0.54c-2.46,-1.47 -4.93,-2.91 -7.42,-4.33l-0.52 -0.29c-1.45,-0.82 -2.9,-1.63 -4.36,-2.44l-0.92 -0.51c-0.81,-0.44 -1.61,-0.88 -2.42,-1.32l-0.32 -0.17c-1.54,-0.83 -3.08,-1.64 -4.62,-2.45l-1.05 -0.54c-2.53,-1.31 -5.08,-2.6 -7.65,-3.86l-0.44 -0.21c-1.53,-0.75 -3.07,-1.49 -4.61,-2.22l-0.91 -0.43c-2.57,-1.21 -5.16,-2.4 -7.75,-3.56l-0.86 -0.38c-2.64,-1.17 -5.3,-2.32 -7.97,-3.43l-0.57 -0.24c-1.58,-0.66 -3.17,-1.31 -4.76,-1.95l-0.87 -0.35c-2.71,-1.08 -5.44,-2.14 -8.18,-3.16l-0.52 -0.19c-2.8,-1.04 -5.61,-2.06 -8.43,-3.04l-0.42 -0.14c-1.73,-0.6 -3.46,-1.19 -5.19,-1.76l-0.63 -0.21c-2.79,-0.92 -5.59,-1.81 -8.4,-2.67l-0.79 -0.24c-2.82,-0.86 -5.66,-1.69 -8.51,-2.48l-0.41 -0.11c-1.83,-0.51 -3.66,-1.01 -5.5,-1.49l-0.39 -0.1c-2.96,-0.78 -5.92,-1.52 -8.91,-2.23l-0.37 -0.09c-1.88,-0.45 -3.77,-0.88 -5.66,-1.3l-0.34 -0.08c-1,-0.22 -1.99,-0.44 -2.99,-0.65l-0.21 -0.04c-1.83,-0.39 -3.67,-0.77 -5.51,-1.13l-0.98 -0.19c-2.87,-0.56 -5.75,-1.1 -8.65,-1.6l-0.88 -0.15c-1.76,-0.3 -3.53,-0.59 -5.29,-0.87l-0.59 -0.09c-1,-0.16 -2,-0.31 -3,-0.46l-0.02 -0c-13.22,-1.97 -26.65,-3.32 -40.26,-3.99 -1.53,-0.08 -3.06,-0.15 -4.6,-0.2l-0.52 -0.02c-1.6,-0.06 -3.2,-0.11 -4.81,-0.15l-0.18 -0 -0.16 -0c-1.67,-0.04 -3.35,-0.07 -5.03,-0.1l-0.09 -0c-1.76,-0.02 -3.53,-0.03 -5.29,-0.03 -1.77,0 -3.53,0.01 -5.29,0.03l-0.09 0c-1.68,0.02 -3.36,0.05 -5.03,0.1l-0.16 0 -0.18 0c-1.61,0.04 -3.21,0.09 -4.81,0.15l-0.52 0.02c-1.54,0.06 -3.07,0.13 -4.6,0.2 -13.6,0.68 -27.03,2.02 -40.26,3.99l-0.02 0c-1,0.15 -2,0.3 -3,0.46l-0.59 0.09c-1.78,0.28 -3.56,0.58 -5.34,0.88l-0.8 0.14c-2.92,0.51 -5.82,1.05 -8.71,1.61l-0.89 0.18c-1.9,0.38 -3.8,0.77 -5.69,1.17l-0.05 0.01c-1.02,0.22 -2.04,0.44 -3.06,0.67l-0.18 0.04c-1.93,0.43 -3.87,0.87 -5.79,1.33l-0.37 0.09c-2.98,0.71 -5.95,1.46 -8.91,2.23l-0.39 0.1c-1.84,0.48 -3.67,0.98 -5.5,1.49l-0.41 0.11c-2.87,0.8 -5.73,1.64 -8.58,2.5l-0.67 0.2c-2.83,0.87 -5.65,1.76 -8.46,2.69l-0.62 0.2c-1.8,0.6 -3.59,1.2 -5.37,1.82l-0.2 0.07c-2.87,1 -5.73,2.03 -8.57,3.09l-0.36 0.13c-2.79,1.04 -5.56,2.12 -8.32,3.22l-0.74 0.3c-1.66,0.67 -3.31,1.34 -4.95,2.03l-0.38 0.16c-2.72,1.14 -5.43,2.31 -8.12,3.5l-0.67 0.3c-2.65,1.18 -5.28,2.39 -7.9,3.63l-0.69 0.33c-1.55,0.74 -3.1,1.48 -4.64,2.23l-0.64 0.31c-2.57,1.27 -5.13,2.56 -7.68,3.88l-0.84 0.44c-2.53,1.32 -5.05,2.66 -7.55,4.03l-0.77 0.43c-1.42,0.78 -2.85,1.58 -4.26,2.38l-0.74 0.42c-2.45,1.39 -4.88,2.81 -7.3,4.26l-1.05 0.63c-1.28,0.77 -2.56,1.55 -3.83,2.33l-0.99 0.61c-0.75,0.46 -1.49,0.93 -2.24,1.4l-0.93 0.59c-1.26,0.8 -2.51,1.6 -3.76,2.41l-1.09 0.71c-2.32,1.51 -4.62,3.05 -6.9,4.61l-0.93 0.63c-1.2,0.82 -2.4,1.65 -3.59,2.49l-1.07 0.75c-0.72,0.51 -1.45,1.03 -2.17,1.54l-0.79 0.57c-1.23,0.89 -2.45,1.78 -3.67,2.67l-0.64 0.47 0 0c-10.66,7.88 -20.91,16.27 -30.74,25.12l-0 -0 -0.76 0.69 -0.97 0.88 -0.25 0.23c-0.85,0.78 -1.7,1.56 -2.55,2.34l-0.79 0.73c-0.94,0.87 -1.87,1.75 -2.79,2.63l-0.24 0.23 -0.45 0.43c-1.06,1.01 -2.11,2.03 -3.16,3.05l-0.01 0.01 -0.08 0.08 -0.16 0.16c-1.12,1.09 -2.23,2.19 -3.34,3.3 -1.11,1.11 -2.2,2.22 -3.3,3.34l-0.16 0.16 -0.08 0.08 -0.01 0.01c-0.99,1.01 -1.97,2.03 -2.95,3.06l-0.76 0.8 -0.23 0.24c-0.73,0.77 -1.46,1.55 -2.19,2.32l-1.02 1.1 -0.23 0.25 -0.07 0.08 -1.52 1.65 -0.23 0.25c-0.6,0.66 -1.2,1.32 -1.8,1.98l-0.22 0.25c-12.24,13.59 -23.59,28 -33.94,43.14l-0.11 0.16c-1.7,2.49 -3.38,5 -5.03,7.53l-0.11 0.16c-2.74,4.22 -5.41,8.49 -8,12.81l-0.13 0.22c-4.15,6.94 -8.1,14 -11.84,21.2l-0.22 0.43c-3.74,7.2 -7.27,14.53 -10.58,21.97l-0.1 0.22c-2.05,4.61 -4.02,9.27 -5.9,13.97l-0.13 0.33c-1.13,2.82 -2.23,5.67 -3.29,8.52l-0.08 0.2c-1.77,4.75 -3.46,9.54 -5.06,14.37l-0.13 0.39c-0.94,2.85 -1.85,5.72 -2.73,8.61l-0.14 0.47c-0.89,2.91 -1.74,5.84 -2.56,8.78l-0 0.02c-0.53,1.88 -1.04,3.77 -1.54,5.66l-0.18 0.67c-0.75,2.86 -1.47,5.73 -2.16,8.61l-0.19 0.78c-0.45,1.89 -0.88,3.79 -1.31,5.69l-0 0.01c-0.63,2.84 -1.23,5.69 -1.8,8.54l-0.28 1.39 -0.49 2.51c-0.2,1.04 -0.39,2.09 -0.58,3.13 -0.16,0.88 -0.32,1.77 -0.47,2.66l-0.24 1.37c-0.25,1.47 -0.5,2.95 -0.73,4.43l-0.21 1.3c-0.14,0.9 -0.28,1.8 -0.41,2.69l-0.03 0.16zm2.08 -12.61c-0.16,0.88 -0.32,1.77 -0.47,2.66zm805.32 150.09c0.17,-0.84 0.33,-1.68 0.49,-2.53zm0.58 -3.13c0.16,-0.89 0.32,-1.78 0.47,-2.67zm-805.81 5.8c0.16,0.84 0.32,1.68 0.49,2.53zm850.1 -100.63c0.33,7.1 0.51,14.24 0.51,21.43 0,7.18 -0.17,14.33 -0.51,21.43l144.09 0c5.87,0 11.23,-2.42 15.12,-6.31 3.89,-3.89 6.31,-9.25 6.31,-15.12 0,-5.87 -2.42,-11.22 -6.31,-15.12 -3.89,-3.89 -9.25,-6.31 -15.12,-6.31l-144.09 0zm-896.41 42.85c-0.33,-7.1 -0.51,-14.24 -0.51,-21.43 0,-7.18 0.17,-14.33 0.51,-21.43l-144.09 0c-5.87,0 -11.22,2.42 -15.12,6.31 -3.89,3.89 -6.31,9.25 -6.31,15.12 0,5.87 2.42,11.22 6.31,15.12 3.89,3.89 9.25,6.31 15.12,6.31l144.09 0zm882.18 -455.4c-4.15,-4.15 -9.64,-6.23 -15.15,-6.23 -5.51,0 -11,2.08 -15.15,6.22l-101.9 101.9c5.29,4.81 10.46,9.74 15.51,14.79 5.05,5.05 9.99,10.23 14.79,15.51l101.89 -101.89c4.15,-4.15 6.23,-9.64 6.23,-15.15 0,-5.51 -2.08,-11 -6.23,-15.15zm-766.05 735.75l-101.89 101.89c-4.15,4.15 -6.23,9.64 -6.23,15.15 0,5.51 2.08,11 6.23,15.15 4.15,4.15 9.64,6.23 15.15,6.23 5.51,0 11,-2.08 15.15,-6.23l101.89 -101.89c-5.29,-4.81 -10.46,-9.74 -15.51,-14.79 -5.05,-5.05 -9.98,-10.22 -14.79,-15.51zm664.16 -0c-4.81,5.29 -9.74,10.46 -14.79,15.51 -5.05,5.05 -10.22,9.99 -15.51,14.79l101.89 101.89c4.15,4.15 9.64,6.23 15.15,6.23 5.51,0 11,-2.08 15.15,-6.23 4.15,-4.15 6.23,-9.64 6.23,-15.15 0,-5.51 -2.08,-11 -6.23,-15.15l-101.89 -101.89zm-664.16 -603.55c4.81,-5.29 9.74,-10.46 14.79,-15.51 5.05,-5.05 10.23,-9.98 15.51,-14.79l-101.89 -101.89c-4.15,-4.15 -9.64,-6.23 -15.15,-6.23 -5.51,0 -11,2.08 -15.15,6.22 -4.15,4.15 -6.23,9.65 -6.23,15.15 0,5.51 2.08,11 6.22,15.15l101.89 101.89z"/>
   <path class="fil0" d="M436.67 436.67c1.64,-1.64 3.64,-3.37 5.94,-5.14 11.06,-8.54 24.92,-13.19 38.47,-13.29 14.35,-0.11 28.47,4.78 39.07,15.38 1.32,1.32 2.76,2.98 4.31,4.99l46.34 59.99c9.8,12.69 11.61,23.32 6.91,35.57 -3.42,8.91 -9.73,15.75 -18.77,24.78 -8.97,8.97 -15.48,15.29 -24.39,18.82 -12.27,4.86 -22.92,3.11 -35.96,-6.96l-59.99 -46.34c-1.77,-1.37 -3.42,-2.82 -4.96,-4.35l-0.04 0.04c-10.61,-10.61 -15.49,-24.76 -15.38,-39.15 0.11,-13.5 4.76,-27.33 13.3,-38.38 1.78,-2.3 3.5,-4.3 5.15,-5.94zm30.01 26.03c-0.5,0.39 -1.2,1.02 -2.08,1.9 -0.88,0.88 -1.51,1.57 -1.91,2.08 -3.29,4.25 -5.08,9.52 -5.12,14.62 -0.03,4.21 1.22,8.17 3.96,10.91l0 0.08c0.35,0.35 0.73,0.68 1.13,1l59.71 46.12c1.98,-1.77 4.94,-4.72 8.62,-8.4 3.74,-3.74 6.66,-6.7 8.37,-8.67l-46.09 -59.67c-0.13,-0.17 -0.5,-0.56 -1.07,-1.13 -2.73,-2.73 -6.73,-3.99 -10.99,-3.96 -5.05,0.04 -10.3,1.83 -14.55,5.11zm74.3 57.42c0.37,-0.96 0.1,-0.33 -0.29,0.54 0.13,-0.21 0.23,-0.39 0.29,-0.54zm-20.93 21.07c0.16,-0.06 0.37,-0.19 0.63,-0.37 -0.95,0.46 -1.68,0.78 -0.63,0.37z"/>
   <path class="fil0" d="M841.87 841.87c0.88,-0.88 1.51,-1.57 1.9,-2.08 3.29,-4.25 5.07,-9.5 5.11,-14.55 0.03,-4.25 -1.23,-8.25 -3.96,-10.99 -0.57,-0.57 -0.95,-0.94 -1.13,-1.07l-59.67 -46.09c-1.97,1.71 -4.93,4.63 -8.67,8.37 -3.68,3.68 -6.63,6.64 -8.4,8.62l46.12 59.71c0.31,0.41 0.65,0.78 1,1.13l0.08 0c2.74,2.74 6.7,3.99 10.91,3.96 5.1,-0.04 10.36,-1.83 14.62,-5.12 0.51,-0.39 1.2,-1.03 2.08,-1.91zm33.08 22c-1.78,2.3 -3.5,4.29 -5.14,5.94 -1.65,1.65 -3.64,3.37 -5.94,5.15 -11.05,8.54 -24.88,13.19 -38.38,13.3 -14.4,0.11 -28.54,-4.77 -39.15,-15.38l0.04 -0.04c-1.53,-1.53 -2.99,-3.19 -4.35,-4.96l-46.34 -59.99c-10.07,-13.04 -11.82,-23.69 -6.96,-35.96 3.53,-8.91 9.85,-15.41 18.82,-24.39 9.03,-9.03 15.87,-15.35 24.78,-18.77 12.25,-4.7 22.88,-2.89 35.57,6.91l59.99 46.34c2.01,1.55 3.67,2.99 4.99,4.31 10.6,10.6 15.49,24.72 15.38,39.07 -0.1,13.55 -4.75,27.42 -13.29,38.47zm-89.13 -98.09c0.87,-0.39 1.5,-0.66 0.54,-0.29 -0.15,0.06 -0.33,0.15 -0.54,0.29zm-20.16 20.02c-0.18,0.25 -0.3,0.47 -0.37,0.63 -0.42,1.05 -0.09,0.32 0.37,-0.63z"/>
   <path class="fil0" d="M436.67 869.8c-1.64,-1.64 -3.37,-3.64 -5.14,-5.94 -8.54,-11.06 -13.19,-24.92 -13.29,-38.47 -0.11,-14.35 4.78,-28.47 15.38,-39.07 1.32,-1.32 2.98,-2.76 4.99,-4.31l59.99 -46.34c12.69,-9.8 23.32,-11.61 35.57,-6.91 8.91,3.42 15.75,9.73 24.78,18.77 8.97,8.97 15.29,15.48 18.82,24.39 4.86,12.27 3.11,22.93 -6.96,35.96l-46.34 59.99c-1.37,1.77 -2.82,3.42 -4.35,4.96l0.04 0.04c-10.61,10.61 -24.76,15.49 -39.15,15.38 -13.5,-0.11 -27.33,-4.76 -38.38,-13.3 -2.3,-1.78 -4.3,-3.5 -5.94,-5.15zm26.03 -30.01c0.39,0.5 1.02,1.2 1.9,2.08 0.88,0.88 1.58,1.52 2.08,1.91 4.25,3.29 9.52,5.08 14.62,5.12 4.21,0.03 8.17,-1.23 10.91,-3.96l0.08 0c0.35,-0.35 0.68,-0.73 1,-1.13l46.12 -59.71c-1.77,-1.98 -4.72,-4.94 -8.4,-8.62 -3.74,-3.74 -6.7,-6.66 -8.67,-8.37l-59.67 46.09c-0.17,0.13 -0.56,0.5 -1.13,1.07 -2.73,2.73 -3.99,6.73 -3.96,10.99 0.04,5.05 1.83,10.3 5.11,14.55zm57.42 -74.3c-0.96,-0.37 -0.34,-0.1 0.54,0.29 -0.21,-0.13 -0.39,-0.23 -0.54,-0.29zm21.07 20.93c-0.06,-0.16 -0.19,-0.37 -0.37,-0.63 0.46,0.95 0.78,1.68 0.37,0.63z"/>
   <path class="fil0" d="M841.87 464.6c-0.88,-0.88 -1.57,-1.51 -2.08,-1.9 -4.25,-3.29 -9.5,-5.07 -14.55,-5.11 -4.25,-0.03 -8.25,1.23 -10.99,3.96 -0.57,0.57 -0.93,0.95 -1.07,1.13l-46.09 59.67c1.7,1.97 4.63,4.93 8.37,8.67 3.68,3.68 6.64,6.63 8.62,8.4l59.71 -46.12c0.41,-0.31 0.78,-0.65 1.13,-1l0 -0.08c2.74,-2.74 3.99,-6.7 3.96,-10.91 -0.04,-5.1 -1.83,-10.36 -5.12,-14.62 -0.39,-0.51 -1.03,-1.2 -1.91,-2.08zm22 -33.08c2.3,1.78 4.29,3.5 5.94,5.14 1.65,1.65 3.37,3.64 5.15,5.94 8.54,11.05 13.19,24.88 13.3,38.38 0.11,14.4 -4.77,28.54 -15.38,39.15l-0.04 -0.04c-1.53,1.53 -3.19,2.99 -4.96,4.35l-59.99 46.34c-13.04,10.07 -23.69,11.82 -35.96,6.96 -8.91,-3.53 -15.41,-9.85 -24.39,-18.82 -9.03,-9.03 -15.35,-15.87 -18.77,-24.78 -4.7,-12.25 -2.89,-22.88 6.91,-35.57l46.34 -59.99c1.55,-2.01 2.99,-3.67 4.31,-4.99 10.6,-10.6 24.72,-15.49 39.07,-15.38 13.55,0.1 27.42,4.75 38.47,13.29zm-98.09 89.13c-0.39,-0.87 -0.66,-1.5 -0.29,-0.54 0.06,0.15 0.15,0.33 0.29,0.54zm20.02 20.16c0.25,0.18 0.46,0.3 0.63,0.37 1.05,0.42 0.33,0.09 -0.63,-0.37z"/>
  </g>
 </g>
</svg>
