<?xml version="1.0" encoding="UTF-8"?>
<!DOCTYPE svg PUBLIC "-//W3C//DTD SVG 1.1//EN" "http://www.w3.org/Graphics/SVG/1.1/DTD/svg11.dtd">
<!-- Creator: CorelDRAW 2019 (64-Bit) -->
<svg xmlns="http://www.w3.org/2000/svg" xml:space="preserve" width="5.3335in" height="5.34259in" version="1.1" style="shape-rendering:geometricPrecision; text-rendering:geometricPrecision; image-rendering:optimizeQuality; fill-rule:evenodd; clip-rule:evenodd"
viewBox="0 0 716.78 718"
 xmlns:xlink="http://www.w3.org/1999/xlink"
 xmlns:xodm="http://www.corel.com/coreldraw/odm/2003">
 <defs>
  <style type="text/css">
   <![CDATA[
    .fil0 {fill:black}
    .fil1 {fill:#1F1B20;fill-rule:nonzero}
   ]]>
  </style>
 </defs>
 <g id="Слой_x0020_1">
  <metadata id="CorelCorpID_0Corel-Layer"/>
  <g id="_2807589028352">
   <path class="fil0" d="M614.5 115.38l0 75.59c0,3.54 6.7,13.17 16.19,7.9 6.63,-3.69 6.21,-12.27 6.21,-21.9 8.17,5.47 13.19,11.1 19.89,17.9 3.13,3.18 6.2,6.31 11.54,5.13 4.52,-0.99 9.15,-5.94 9.15,-10.44 0,-9.91 -18.36,-21.78 -24.86,-28.33 -3.32,-3.34 -6.25,-5.75 -8.74,-9.46 0.96,-1.31 14.14,-13.69 16.46,-15.74 6.87,-6.05 14.34,-8.39 14.34,-19.26 0,-4.09 -6.98,-9.8 -11.2,-9.8 -5.92,0 -18.27,15.42 -26.59,21 0,-34.18 -22.4,-18.72 -22.4,-12.6z"/>
   <path class="fil0" d="M335.95 153.17c0,21.07 14.81,37.26 30.33,43.85 9.76,4.15 21.28,4.28 31.11,0.79 28.01,-9.94 20.88,-29.25 8.54,-29.25 -11.07,0 -7.53,9.8 -23.8,9.8 -31.21,0 -32.31,-50.39 1.4,-50.39 7.17,0 13.45,5.21 17.61,6.18 14.03,3.26 28.23,-27.18 -23.21,-27.18 -20.15,0 -41.99,22.27 -41.99,46.19z"/>
   <path class="fil0" d="M522.12 148.97c0,23.52 9.74,41.51 31.25,48.53 10.63,3.47 19.34,4.06 30.01,0.13 5.31,-1.96 7.84,-3.79 11.59,-6.61 11.79,-8.87 8.4,-22.46 -5.66,-22.46 -5.46,0 -6.62,9.8 -21,9.8 -21.73,0 -32.63,-26.12 -17.92,-41.72 15.71,-16.66 29.89,-4.31 35.72,-2.54 6.84,2.08 13,-2.4 13,-13.13 0,-10.26 -38.36,-25.5 -62.66,-1.08 -6.24,6.27 -14.32,17.27 -14.32,29.07z"/>
   <path class="fil0" d="M428.34 120.98l0 64.39c0,18.86 15.47,15.4 34.99,15.4 5.43,0 8.31,-1.82 10.8,-6 4.64,-7.78 -0.63,-16.4 -9.4,-16.4l-14 0 0 -60.19c0,-13.95 -22.4,-17.54 -22.4,2.8z"/>
   <path class="fil0" d="M488.52 116.78l0 72.79c0,14.42 21,13.93 21,0l0 -74.19c0,-9.69 -21,-13.53 -21,1.4z"/>
   <path class="fil0" d="M695.68 115.38l0 40.59c0,14.47 21,14.47 21,0l0 -40.59c0,-11.16 -21,-11.16 -21,0z"/>
   <path class="fil0" d="M695.68 188.16c0,14.08 21,14.08 21,0 0,-5.99 -4.31,-11.2 -9.8,-11.2 -6.77,0 -11.2,4.43 -11.2,11.2z"/>
   <path class="fil1" d="M188.5 391.91c5.88,0.58 10.18,5.82 9.6,11.7 -0.58,5.88 -5.82,10.18 -11.7,9.6 -52.9,-5.33 -99.5,-30.27 -132.86,-67.16 -33.39,-36.92 -53.54,-85.77 -53.54,-138.9 0,-57.2 23.19,-108.99 60.67,-146.47 37.49,-37.49 89.27,-60.67 146.47,-60.67 26.99,0 53.47,5.28 78.04,15.27 24.54,9.98 47.18,24.69 66.54,43.56 4.24,4.12 4.33,10.9 0.21,15.13 -4.12,4.24 -10.9,4.33 -15.13,0.21 -17.32,-16.89 -37.63,-30.07 -59.66,-39.04 -22.01,-8.95 -45.75,-13.68 -69.99,-13.68 -51.27,0 -97.69,20.78 -131.29,54.38 -33.6,33.6 -54.38,80.02 -54.38,131.29 0,47.72 18.04,91.52 47.92,124.57 29.91,33.07 71.68,55.42 119.11,60.2z"/>
   <path class="fil1" d="M174.02 326.59c5.81,1.13 9.6,6.77 8.47,12.58 -1.13,5.81 -6.77,9.6 -12.58,8.47 -33.6,-6.59 -62.53,-24.64 -83.07,-49.6 -20.55,-24.97 -32.68,-56.83 -32.68,-91.05 0,-31.77 10.5,-61.67 28.64,-85.9 18.12,-24.2 43.85,-42.68 74.35,-51.62 5.67,-1.67 11.62,1.58 13.29,7.25 1.67,5.67 -1.58,11.62 -7.25,13.29 -25.98,7.62 -47.88,23.34 -63.28,43.91 -15.38,20.54 -24.28,45.97 -24.28,73.07 0,29.17 10.3,56.28 27.73,77.47 17.44,21.2 42.05,36.53 70.66,42.14z"/>
   <path class="fil1" d="M210.79 85.8c-5.88,-0.62 -10.14,-5.9 -9.52,-11.78 0.62,-5.88 5.9,-10.14 11.78,-9.52 14.11,1.54 27.83,5.16 40.72,10.66 12.92,5.52 25.01,12.91 35.86,22.01 4.54,3.8 5.14,10.56 1.34,15.09 -3.8,4.54 -10.56,5.14 -15.09,1.34 -9.26,-7.77 -19.54,-14.07 -30.49,-18.74 -10.98,-4.69 -22.63,-7.76 -34.6,-9.07z"/>
   <path class="fil1" d="M461.59 547.92c-1.83,5.63 -7.87,8.7 -13.5,6.88 -5.63,-1.83 -8.7,-7.87 -6.88,-13.5l22.85 -70.31c1.19,-3.66 4.17,-6.24 7.65,-7.1l211.12 -67.47c4.44,-1.42 7.71,-4.04 9.8,-7.19 1.74,-2.63 2.67,-5.62 2.75,-8.56 0.08,-2.84 -0.61,-5.64 -2.11,-8 -1.55,-2.46 -4.09,-4.51 -7.65,-5.73l-455.4 -155.64c-5.14,-1.76 -9.88,-1.83 -13.68,-0.52 -1.97,0.68 -3.73,1.77 -5.17,3.2 -1.41,1.4 -2.52,3.19 -3.24,5.3 -1.49,4.35 -1.38,10.03 0.94,16.76l154.21 446.7c1.83,5.29 4.74,9.18 8.14,11.5 2.34,1.59 4.89,2.41 7.4,2.37 2.52,-0.04 5.17,-0.97 7.73,-2.88 4.09,-3.06 7.77,-8.43 10.33,-16.45l26.27 -82.4c1.78,-5.63 7.79,-8.74 13.42,-6.96 5.63,1.78 8.74,7.79 6.96,13.42l-26.27 82.4c-4.05,12.7 -10.47,21.65 -17.88,27.19 -6.25,4.67 -13.23,6.96 -20.22,7.07 -6.99,0.11 -13.83,-1.98 -19.81,-6.06 -7.02,-4.78 -12.86,-12.33 -16.28,-22.23l-154.21 -446.7c-4,-11.59 -3.95,-22.03 -1.02,-30.6 1.81,-5.31 4.71,-9.89 8.44,-13.6 3.7,-3.68 8.22,-6.47 13.3,-8.23 8.21,-2.83 17.77,-2.9 27.52,0.43l455.4 155.64c8.53,2.92 14.82,8.18 18.89,14.62 3.8,6.01 5.58,12.99 5.38,19.99 -0.2,6.89 -2.31,13.8 -6.27,19.8 -4.61,6.97 -11.71,12.71 -21.2,15.74l-206.54 66 -21.17 65.12z"/>
  </g>
 </g>
</svg>
