<?xml version="1.0" encoding="UTF-8"?>
<!DOCTYPE svg PUBLIC "-//W3C//DTD SVG 1.1//EN" "http://www.w3.org/Graphics/SVG/1.1/DTD/svg11.dtd">
<!-- Creator: CorelDRAW 2021 (64-Bit) -->
<svg xmlns="http://www.w3.org/2000/svg" xml:space="preserve" width="2.5338mm" height="2.5338mm" version="1.1" style="shape-rendering:geometricPrecision; text-rendering:geometricPrecision; image-rendering:optimizeQuality; fill-rule:evenodd; clip-rule:evenodd"
viewBox="0 0 11.92 11.92"
 xmlns:xlink="http://www.w3.org/1999/xlink"
 xmlns:xodm="http://www.corel.com/coreldraw/odm/2003">
 <defs>
  <style type="text/css">
   <![CDATA[
    .fil0 {fill:#201F1F}
   ]]>
  </style>
 </defs>
 <g id="Слой_x0020_1">
  <metadata id="CorelCorpID_0Corel-Layer"/>
  <g id="_2395467813952">
   <path class="fil0" d="M1.49 11.17l0 0.75c1.24,0 2.48,0 3.72,0l0 -0.75c-1.24,0 -2.48,0 -3.72,0z"/>
   <rect class="fil0" transform="matrix(-5.67649E-16 -0.0214332 -0.0214332 5.67649E-16 1.4899 11.1744)" width="34.76" height="34.76"/>
   <polygon class="fil0" points="0.75,8.94 -0,8.94 -0,10.43 0.75,10.43 "/>
   <rect class="fil0" transform="matrix(-5.67649E-16 -0.0214332 -0.0214332 5.67649E-16 1.4899 8.9395)" width="34.76" height="34.76"/>
   <rect class="fil0" transform="matrix(5.67649E-16 -0.0214332 0.0214332 5.67649E-16 5.21473 11.1744)" width="34.76" height="34.76"/>
   <polygon class="fil0" points="5.96,10.43 5.96,8.94 6.7,8.94 6.7,10.43 "/>
   <rect class="fil0" transform="matrix(5.67649E-16 -0.0214332 0.0214332 5.67649E-16 5.21473 8.9395)" width="34.76" height="34.76"/>
   <path class="fil0" d="M1.49 10.43c1.24,0 2.48,0 3.72,0l0 -1.49 -0.75 0 0 -0.74 0.74 0 0 -0.75 -0.74 0 0 -1.49 0.74 0 0 -0.75 -0.74 0 0 -3.72 1.49 0 0 -0.74 -1.49 0 -0.74 0 0 8.94 -0.75 0 0 -8.94 -0.74 0 0 6.7 -0.75 0 0 0.75 0.75 0 0 0.74 -0.75 0 0 1.49z"/>
   <path class="fil0" d="M8.94 7.45l0 -0.74 0.75 0 0 -0.75c-1.49,0 -2.98,0 -4.47,0l0 0.75c0.99,0 1.99,0 2.98,0l0 0.74 0.74 0z"/>
   <rect class="fil0" transform="matrix(-5.67649E-16 -0.0214332 -0.0214332 5.67649E-16 9.68445 8.19454)" width="34.76" height="34.76"/>
   <rect class="fil0" transform="matrix(-5.67649E-16 -0.0214332 -0.0214332 5.67649E-16 10.4294 7.44958)" width="34.76" height="34.76"/>
   <polygon class="fil0" points="11.17,5.21 10.43,5.21 10.43,6.7 11.17,6.7 "/>
   <rect class="fil0" transform="matrix(-5.67649E-16 -0.0214332 -0.0214332 5.67649E-16 10.4294 5.2147)" width="34.76" height="34.76"/>
   <rect class="fil0" transform="matrix(-5.67649E-16 -0.0214332 -0.0214332 5.67649E-16 9.68445 4.46974)" width="34.76" height="34.76"/>
   <polygon class="fil0" points="11.17,3.72 11.17,2.98 9.68,2.98 9.68,3.72 "/>
   <rect class="fil0" transform="matrix(-5.67649E-16 -0.0214332 -0.0214332 5.67649E-16 11.9193 2.97982)" width="34.76" height="34.76"/>
   <rect class="fil0" transform="matrix(-5.67649E-16 -0.0214332 -0.0214332 5.67649E-16 11.1744 2.23486)" width="34.76" height="34.76"/>
   <path class="fil0" d="M10.43 1.49l0 -0.74c-0.75,0 -1.49,0 -2.23,0l0 0.74c0.75,0 1.49,0 2.23,0z"/>
   <path class="fil0" d="M8.19 2.23l0 -0.75c-0.75,0 -1.49,0 -2.23,0l0 0.75c0.75,0 1.49,0 2.23,0z"/>
   <rect class="fil0" transform="matrix(-5.67649E-16 -0.0214332 -0.0214332 5.67649E-16 3.72478 0.744943)" width="34.76" height="34.76"/>
  </g>
 </g>
</svg>
