<?xml version="1.0" encoding="UTF-8"?>
<!DOCTYPE svg PUBLIC "-//W3C//DTD SVG 1.1//EN" "http://www.w3.org/Graphics/SVG/1.1/DTD/svg11.dtd">
<!-- Creator: CorelDRAW 2021 (64-Bit) -->
<svg xmlns="http://www.w3.org/2000/svg" xml:space="preserve" width="4.4478mm" height="4.4478mm" version="1.1" style="shape-rendering:geometricPrecision; text-rendering:geometricPrecision; image-rendering:optimizeQuality; fill-rule:evenodd; clip-rule:evenodd"
viewBox="0 0 20.45 20.45"
 xmlns:xlink="http://www.w3.org/1999/xlink"
 xmlns:xodm="http://www.corel.com/coreldraw/odm/2003">
 <defs>
  <style type="text/css">
   <![CDATA[
    .fil0 {fill:#9BB971}
   ]]>
  </style>
 </defs>
 <g id="Слой_x0020_1">
  <metadata id="CorelCorpID_0Corel-Layer"/>
  <g id="_2395467839632">
   <path class="fil0" d="M2.56 19.18l0 1.28c2.13,0 4.26,0 6.39,0l0 -1.28c-2.13,0 -4.26,0 -6.39,0z"/>
   <rect class="fil0" transform="matrix(-9.96445E-16 -0.0376236 -0.0376236 9.96445E-16 2.55685 19.1765)" width="33.98" height="33.98"/>
   <polygon class="fil0" points="1.28,15.34 -0,15.34 -0,17.9 1.28,17.9 "/>
   <rect class="fil0" transform="matrix(-9.96445E-16 -0.0376236 -0.0376236 9.96445E-16 2.55685 15.3412)" width="33.98" height="33.98"/>
   <rect class="fil0" transform="matrix(9.96445E-16 -0.0376236 0.0376236 9.96445E-16 8.94909 19.1765)" width="33.98" height="33.98"/>
   <polygon class="fil0" points="10.23,17.9 10.23,15.34 11.51,15.34 11.51,17.9 "/>
   <rect class="fil0" transform="matrix(9.96445E-16 -0.0376236 0.0376236 9.96445E-16 8.94909 15.3412)" width="33.98" height="33.98"/>
   <path class="fil0" d="M2.56 17.9c2.13,0 4.26,0 6.39,0l0 -2.56 -1.28 0 0 -1.28 1.28 0 0 -1.28 -1.28 0 0 -2.56 1.28 0 0 -1.28 -1.28 0 0 -6.39 2.56 0 0 -1.28 -2.56 0 -1.28 0 0 15.34 -1.28 0 0 -15.34 -1.28 0 0 11.51 -1.28 0 0 1.28 1.28 0 0 1.28 -1.28 0 0 2.56z"/>
   <path class="fil0" d="M15.34 12.78l0 -1.28 1.28 0 0 -1.28c-2.56,0 -5.11,0 -7.67,0l0 1.28c1.71,0 3.41,0 5.11,0l0 1.28 1.28 0z"/>
   <rect class="fil0" transform="matrix(-9.96445E-16 -0.0376236 -0.0376236 9.96445E-16 16.6197 14.0628)" width="33.98" height="33.98"/>
   <rect class="fil0" transform="matrix(-9.96445E-16 -0.0376236 -0.0376236 9.96445E-16 17.8981 12.7843)" width="33.98" height="33.98"/>
   <polygon class="fil0" points="19.18,8.95 17.9,8.95 17.9,11.51 19.18,11.51 "/>
   <rect class="fil0" transform="matrix(-9.96445E-16 -0.0376236 -0.0376236 9.96445E-16 17.8981 8.94903)" width="33.98" height="33.98"/>
   <rect class="fil0" transform="matrix(-9.96445E-16 -0.0376236 -0.0376236 9.96445E-16 16.6197 7.6706)" width="33.98" height="33.98"/>
   <polygon class="fil0" points="19.18,6.39 19.18,5.11 16.62,5.11 16.62,6.39 "/>
   <rect class="fil0" transform="matrix(-9.96445E-16 -0.0376236 -0.0376236 9.96445E-16 20.455 5.11372)" width="33.98" height="33.98"/>
   <rect class="fil0" transform="matrix(-9.96445E-16 -0.0376236 -0.0376236 9.96445E-16 19.1765 3.83528)" width="33.98" height="33.98"/>
   <path class="fil0" d="M17.9 2.56l0 -1.28c-1.28,0 -2.56,0 -3.84,0l0 1.28c1.28,0 2.56,0 3.84,0z"/>
   <path class="fil0" d="M14.06 3.84l0 -1.28c-1.28,0 -2.56,0 -3.84,0l0 1.28c1.28,0 2.56,0 3.84,0z"/>
   <rect class="fil0" transform="matrix(-9.96445E-16 -0.0376236 -0.0376236 9.96445E-16 6.39216 1.27841)" width="33.98" height="33.98"/>
  </g>
 </g>
</svg>
