<?xml version="1.0" encoding="UTF-8"?>
<!DOCTYPE svg PUBLIC "-//W3C//DTD SVG 1.1//EN" "http://www.w3.org/Graphics/SVG/1.1/DTD/svg11.dtd">
<!-- Creator: CorelDRAW 2021 (64-Bit) -->
<svg xmlns="http://www.w3.org/2000/svg" xml:space="preserve" width="3mm" height="3mm" version="1.1" style="shape-rendering:geometricPrecision; text-rendering:geometricPrecision; image-rendering:optimizeQuality; fill-rule:evenodd; clip-rule:evenodd"
viewBox="0 0 12.11 12.11"
 xmlns:xlink="http://www.w3.org/1999/xlink"
 xmlns:xodm="http://www.corel.com/coreldraw/odm/2003">
 <defs>
  <style type="text/css">
   <![CDATA[
    .fil0 {fill:#FB6353}
   ]]>
  </style>
 </defs>
 <g id="Слой_x0020_1">
  <metadata id="CorelCorpID_0Corel-Layer"/>
  <g id="_2395653404576">
   <path class="fil0" d="M4.66 2.79l0.93 0 0 -0.93 0.93 0 0 0.93 0.93 0 0 0.93c-0.93,0 -1.86,0 -2.79,0l0 -0.93z"/>
   <rect class="fil0" x="3.72" y="3.72" width="0.93" height="0.93"/>
   <rect class="fil0" x="7.45" y="3.72" width="0.93" height="0.93"/>
   <path class="fil0" d="M2.79 4.66l0.93 0c0,0.93 0,1.86 0,2.79l-0.93 0 0 -0.93 -0.93 0 0 -0.93 0.93 0 0 -0.93z"/>
   <path class="fil0" d="M7.45 9.31l-0.93 0 0 0.93 -0.93 0 0 -0.93 -0.93 0 0 -0.93c0.93,0 1.86,0 2.79,0l0 0.93z"/>
   <rect class="fil0" x="7.45" y="7.45" width="0.93" height="0.93"/>
   <rect class="fil0" x="3.72" y="7.45" width="0.93" height="0.93"/>
   <path class="fil0" d="M9.31 7.45l-0.93 0c0,-0.93 0,-1.86 0,-2.79l0.93 0 0 0.93 0.93 0 0 0.93 -0.93 0 0 0.93z"/>
   <rect class="fil0" x="2.79" y="2.79" width="0.93" height="0.93"/>
   <rect class="fil0" x="1.86" y="1.86" width="0.93" height="0.93"/>
   <rect class="fil0" x="8.38" y="2.79" width="0.93" height="0.93"/>
   <rect class="fil0" x="9.31" y="1.86" width="0.93" height="0.93"/>
   <rect class="fil0" x="2.79" y="8.38" width="0.93" height="0.93"/>
   <rect class="fil0" x="1.86" y="9.31" width="0.93" height="0.93"/>
   <rect class="fil0" x="8.38" y="8.38" width="0.93" height="0.93"/>
   <rect class="fil0" x="9.31" y="9.31" width="0.93" height="0.93"/>
   <rect class="fil0" y="5.59" width="0.93" height="0.93"/>
   <rect class="fil0" x="11.17" y="5.59" width="0.93" height="0.93"/>
   <rect class="fil0" transform="matrix(2.21603E-15 -0.0836727 0.0748619 1.98268E-15 5.58705 12.1053)" width="11.13" height="12.44"/>
   <rect class="fil0" transform="matrix(2.21603E-15 -0.0836727 0.0748619 1.98268E-15 5.58705 0.931174)" width="11.13" height="12.44"/>
   <rect class="fil0" x="5.59" y="4.66" width="0.93" height="0.93"/>
   <rect class="fil0" x="4.66" y="5.59" width="0.93" height="0.93"/>
   <rect class="fil0" x="6.52" y="5.59" width="0.93" height="0.93"/>
   <rect class="fil0" x="5.59" y="6.52" width="0.93" height="0.93"/>
  </g>
 </g>
</svg>
