<?xml version="1.0" encoding="UTF-8"?>
<!DOCTYPE svg PUBLIC "-//W3C//DTD SVG 1.1//EN" "http://www.w3.org/Graphics/SVG/1.1/DTD/svg11.dtd">
<!-- Creator: CorelDRAW 2021 (64-Bit) -->
<svg xmlns="http://www.w3.org/2000/svg" xml:space="preserve" width="3.5492mm" height="3.5492mm" version="1.1" style="shape-rendering:geometricPrecision; text-rendering:geometricPrecision; image-rendering:optimizeQuality; fill-rule:evenodd; clip-rule:evenodd"
viewBox="0 0 3.65 3.65"
 xmlns:xlink="http://www.w3.org/1999/xlink"
 xmlns:xodm="http://www.corel.com/coreldraw/odm/2003">
 <defs>
  <style type="text/css">
   <![CDATA[
    .fil0 {fill:#211F20}
   ]]>
  </style>
 </defs>
 <g id="Слой_x0020_1">
  <metadata id="CorelCorpID_0Corel-Layer"/>
  <g id="_2395653389264">
   <polygon class="fil0" points="0.68,0.46 1.14,0.46 1.14,0.68 0.68,0.68 "/>
   <rect class="fil0" x="1.14" y="0.68" width="0.23" height="0.23"/>
   <polygon class="fil0" points="0.46,0.68 0.46,1.14 0.68,1.14 0.68,0.68 "/>
   <rect class="fil0" transform="matrix(1.46653E-14 0.553732 0.553732 -1.46653E-14 0.68354 1.13923)" width="0.41" height="0.41"/>
   <polygon class="fil0" points="1.37,0.23 1.37,0.68 1.59,0.68 1.59,0.23 "/>
   <polygon class="fil0" points="2.05,0 1.59,0 1.59,0.23 2.05,0.23 "/>
   <polygon class="fil0" points="2.28,0.23 2.28,0.68 2.05,0.68 2.05,0.23 "/>
   <polygon class="fil0" points="3.19,0.68 3.19,1.14 2.96,1.14 2.96,0.68 "/>
   <rect class="fil0" transform="matrix(-1.46653E-14 0.553732 -0.553732 -1.46653E-14 2.962 1.13923)" width="0.41" height="0.41"/>
   <polygon class="fil0" points="2.96,0.46 2.51,0.46 2.51,0.68 2.96,0.68 "/>
   <rect class="fil0" x="2.28" y="0.68" width="0.23" height="0.23"/>
   <polygon class="fil0" points="3.42,1.37 2.96,1.37 2.96,1.59 3.42,1.59 "/>
   <polygon class="fil0" points="3.65,2.05 3.65,1.59 3.42,1.59 3.42,2.05 "/>
   <polygon class="fil0" points="3.42,2.28 2.96,2.28 2.96,2.05 3.42,2.05 "/>
   <polygon class="fil0" points="2.96,3.19 2.51,3.19 2.51,2.96 2.96,2.96 "/>
   <rect class="fil0" x="2.28" y="2.73" width="0.23" height="0.23"/>
   <polygon class="fil0" points="3.19,2.96 3.19,2.51 2.96,2.51 2.96,2.96 "/>
   <rect class="fil0" transform="matrix(-1.46653E-14 -0.553732 -0.553732 1.46653E-14 2.962 2.50631)" width="0.41" height="0.41"/>
   <polygon class="fil0" points="2.28,3.42 2.28,2.96 2.05,2.96 2.05,3.42 "/>
   <polygon class="fil0" points="1.59,3.65 2.05,3.65 2.05,3.42 1.59,3.42 "/>
   <polygon class="fil0" points="1.37,3.42 1.37,2.96 1.59,2.96 1.59,3.42 "/>
   <polygon class="fil0" points="0.46,2.96 0.46,2.51 0.68,2.51 0.68,2.96 "/>
   <rect class="fil0" transform="matrix(1.46653E-14 -0.553732 0.553732 1.46653E-14 0.68354 2.50631)" width="0.41" height="0.41"/>
   <polygon class="fil0" points="0.68,3.19 1.14,3.19 1.14,2.96 0.68,2.96 "/>
   <rect class="fil0" x="1.14" y="2.73" width="0.23" height="0.23"/>
   <polygon class="fil0" points="0.23,2.28 0.68,2.28 0.68,2.05 0.23,2.05 "/>
   <polygon class="fil0" points="-0,1.59 -0,2.05 0.23,2.05 0.23,1.59 "/>
   <polygon class="fil0" points="0.23,1.37 0.68,1.37 0.68,1.59 0.23,1.59 "/>
   <polygon class="fil0" points="1.59,1.14 2.05,1.14 2.05,1.37 1.59,1.37 "/>
   <rect class="fil0" x="2.05" y="1.37" width="0.23" height="0.23"/>
   <polygon class="fil0" points="1.14,2.05 1.14,1.59 1.37,1.59 1.37,2.05 "/>
   <rect class="fil0" transform="matrix(1.46653E-14 -0.553732 0.553732 1.46653E-14 1.36708 1.59493)" width="0.41" height="0.41"/>
   <polygon class="fil0" points="2.05,2.51 1.59,2.51 1.59,2.28 2.05,2.28 "/>
   <rect class="fil0" x="1.37" y="2.05" width="0.23" height="0.23"/>
   <polygon class="fil0" points="2.51,1.59 2.51,2.05 2.28,2.05 2.28,1.59 "/>
   <rect class="fil0" transform="matrix(-1.46653E-14 0.553732 -0.553732 -1.46653E-14 2.27847 2.05062)" width="0.41" height="0.41"/>
  </g>
 </g>
</svg>
