<?xml version="1.0" encoding="UTF-8" standalone="no"?>
<!DOCTYPE svg PUBLIC "-//W3C//DTD SVG 1.1//EN" "http://www.w3.org/Graphics/SVG/1.1/DTD/svg11.dtd">
<svg width="100%" height="100%" viewBox="0 0 159 100" version="1.1" xmlns="http://www.w3.org/2000/svg" xmlns:xlink="http://www.w3.org/1999/xlink" xml:space="preserve" xmlns:serif="http://www.serif.com/" style="fill-rule:evenodd;clip-rule:evenodd;stroke-linejoin:round;stroke-miterlimit:2;">
    <g transform="matrix(1,0,0,1,-619.528,-225.317)">
        <g>
            <g transform="matrix(0.578699,0,0,0.578699,-178.003,-1277.69)">
                <g transform="matrix(-0.89328,0,0,0.89328,2872.74,279.464)">
                    <path d="M1509.25,2727.02C1509.25,2727.02 1504.66,2703.56 1480.75,2703.56C1469.36,2703.56 1470.6,2709.45 1470.6,2709.45C1470.6,2717.76 1486.76,2733.67 1506.49,2730.55C1500.64,2721.26 1492.54,2716.75 1484.52,2713.42C1491.77,2714.75 1500.59,2717.12 1509.25,2727.02Z" style="fill:rgb(97,56,18);"/>
                </g>
                <path d="M1509.25,2727.02C1509.25,2727.02 1504.66,2703.56 1480.75,2703.56C1469.36,2703.56 1470.6,2709.45 1470.6,2709.45C1470.6,2717.76 1486.76,2733.67 1506.49,2730.55C1500.64,2721.26 1492.54,2716.75 1484.52,2713.42C1491.77,2714.75 1500.59,2717.12 1509.25,2727.02Z" style="fill:rgb(97,56,18);"/>
                <path d="M1520.5,2748.05C1520.5,2750.35 1518.63,2752.22 1516.33,2752.22C1514.03,2752.22 1512.16,2750.35 1512.16,2748.05L1512.16,2691.8C1512.16,2689.5 1514.03,2687.63 1516.33,2687.63C1518.63,2687.63 1520.5,2689.5 1520.5,2691.8L1520.5,2748.05Z" style="fill:rgb(97,56,18);"/>
                <path d="M1521.87,2658.3C1521.87,2658.3 1541.7,2638.39 1551.83,2638.89C1552.71,2674.8 1538.64,2685.16 1538.64,2685.16C1534.26,2675.47 1528.78,2666.46 1521.87,2658.3" style="fill:rgb(97,56,18);"/>
                <path d="M1499.23,2641.66C1503.8,2636.07 1509.32,2630.29 1516.24,2624.23C1522.6,2629.56 1528.42,2635.22 1533.43,2641.39C1527.45,2644.68 1521.82,2648.74 1516.55,2653.56C1511.34,2648.67 1505.58,2644.68 1499.23,2641.66Z" style="fill:rgb(97,56,18);"/>
                <path d="M1480.77,2639.37C1480.61,2651.59 1480.97,2705.43 1532.22,2690.67C1514.58,2642.02 1480.77,2639.37 1480.77,2639.37Z" style="fill:rgb(97,56,18);"/>
            </g>
            <g transform="matrix(0.873227,0,0,1,478.836,215.409)">
                <rect x="161.117" y="9.908" width="181.174" height="99.333" style="fill:none;"/>
            </g>
        </g>
    </g>
</svg>
