<?xml version="1.0" encoding="UTF-8" standalone="no"?>
<!DOCTYPE svg PUBLIC "-//W3C//DTD SVG 1.1//EN" "http://www.w3.org/Graphics/SVG/1.1/DTD/svg11.dtd">
<svg width="100%" height="100%" viewBox="0 0 159 100" version="1.1" xmlns="http://www.w3.org/2000/svg" xmlns:xlink="http://www.w3.org/1999/xlink" xml:space="preserve" xmlns:serif="http://www.serif.com/" style="fill-rule:evenodd;clip-rule:evenodd;stroke-linecap:round;stroke-linejoin:round;stroke-miterlimit:1.5;">
    <g transform="matrix(1,0,0,1,-2000.97,-9.90805)">
        <g>
            <g transform="matrix(1,0,0,1,45.5428,0)">
                <g transform="matrix(1,0,0,1,784.503,-513.623)">
                    <path d="M1237.71,606.914C1237.71,606.914 1237.71,606.915 1237.71,606.916C1231.34,604.135 1227.16,599.442 1227.16,594.125L1230.6,594.125L1233.74,599.517L1236.88,594.125L1275.23,594.125C1275.23,599.442 1271.04,604.135 1264.67,606.916C1264.67,606.915 1264.67,606.914 1264.67,606.914C1260.83,608.594 1256.19,609.576 1251.19,609.576C1246.2,609.576 1241.56,608.594 1237.71,606.914Z" style="fill:rgb(89,54,35);"/>
                </g>
                <g transform="matrix(1,0,0,1,784.503,-513.623)">
                    <path d="M1220.67,565.011L1235.08,573.452L1220.88,581.723" style="fill:none;stroke:rgb(84,56,17);stroke-width:4.17px;"/>
                </g>
                <g transform="matrix(-1,0,0,1,3287.61,-513.623)">
                    <path d="M1220.67,565.011L1235.08,573.452L1220.88,581.723" style="fill:none;stroke:rgb(84,56,17);stroke-width:4.17px;"/>
                </g>
                <g transform="matrix(-1.4656,-1.79485e-16,1.28759e-16,-1.0514,3849.66,700.864)">
                    <path d="M1247.46,590.036L1249.6,584.908L1251.75,590.036L1247.46,590.036Z" style="fill:white;"/>
                </g>
                <g transform="matrix(-1.4656,-1.79485e-16,1.28759e-16,-1.0514,3885.19,700.864)">
                    <path d="M1247.46,590.036L1249.6,584.908L1251.75,590.036L1247.46,590.036Z" style="fill:white;"/>
                </g>
            </g>
            <g transform="matrix(0.873227,0,0,1,1860.28,0)">
                <rect x="161.117" y="9.908" width="181.174" height="99.333" style="fill:none;"/>
            </g>
        </g>
    </g>
</svg>
