<?xml version="1.0" encoding="UTF-8" standalone="no"?>
<!DOCTYPE svg PUBLIC "-//W3C//DTD SVG 1.1//EN" "http://www.w3.org/Graphics/SVG/1.1/DTD/svg11.dtd">
<svg width="100%" height="100%" viewBox="0 0 159 100" version="1.1" xmlns="http://www.w3.org/2000/svg" xmlns:xlink="http://www.w3.org/1999/xlink" xml:space="preserve" xmlns:serif="http://www.serif.com/" style="fill-rule:evenodd;clip-rule:evenodd;stroke-linejoin:round;stroke-miterlimit:2;">
    <g transform="matrix(1,0,0,1,-29.027,-9.90805)">
        <g>
            <g transform="matrix(1,0,0,1,-151.226,0)">
                <g transform="matrix(1,0,0,1,-345.258,-525.114)">
                    <path d="M596.217,599.58L612.293,599.58" style="fill:none;"/>
                </g>
                <g transform="matrix(1,0,0,1,-345.258,-525.114)">
                    <path d="M596.217,602.705C594.493,602.705 593.092,601.305 593.092,599.58C593.092,597.856 594.493,596.455 596.217,596.455L612.293,596.455C614.017,596.455 615.418,597.856 615.418,599.58C615.418,601.305 614.017,602.705 612.293,602.705L596.217,602.705Z" style="fill:rgb(97,56,18);"/>
                </g>
                <g transform="matrix(1,0,0,1,-345.258,-525.114)">
                    <path d="M564.443,572.601C562.922,573.415 561.027,572.841 560.213,571.32C559.399,569.8 559.973,567.904 561.494,567.09C569.562,562.772 580.606,562.136 588.565,567.068C590.031,567.977 590.484,569.905 589.575,571.371C588.667,572.837 586.739,573.29 585.273,572.381C579.148,568.586 570.652,569.278 564.443,572.601Z" style="fill:rgb(97,56,18);"/>
                </g>
                <g transform="matrix(1,0,0,1,-285.916,-524.973)">
                    <path d="M564.443,572.601C562.922,573.415 561.027,572.841 560.213,571.32C559.399,569.8 559.973,567.904 561.494,567.09C569.562,562.772 580.606,562.136 588.565,567.068C590.031,567.977 590.484,569.905 589.575,571.371C588.667,572.837 586.739,573.29 585.273,572.381C579.148,568.586 570.652,569.278 564.443,572.601Z" style="fill:rgb(97,56,18);"/>
                </g>
            </g>
            <g transform="matrix(0.873227,0,0,1,-111.665,0)">
                <rect x="161.117" y="9.908" width="181.174" height="99.333" style="fill:none;"/>
            </g>
        </g>
    </g>
</svg>
