<?xml version="1.0" encoding="UTF-8" standalone="no"?>
<!DOCTYPE svg PUBLIC "-//W3C//DTD SVG 1.1//EN" "http://www.w3.org/Graphics/SVG/1.1/DTD/svg11.dtd">
<svg width="100%" height="100%" viewBox="0 0 159 100" version="1.1" xmlns="http://www.w3.org/2000/svg" xmlns:xlink="http://www.w3.org/1999/xlink" xml:space="preserve" xmlns:serif="http://www.serif.com/" style="fill-rule:evenodd;clip-rule:evenodd;stroke-linecap:round;stroke-linejoin:round;stroke-miterlimit:1.5;">
    <g transform="matrix(1,0,0,1,-1933.75,-225.317)">
        <g>
            <g transform="matrix(1,0,0,1,255.394,-100.028)">
                <g transform="matrix(0.97044,0,0,0.97044,228.111,-475.09)">
                    <circle cx="1549.57" cy="874.208" r="13.579" style="fill:white;stroke:rgb(97,56,18);stroke-width:1.93px;"/>
                </g>
                <g transform="matrix(1.16854,0,0,1.16854,-78.3135,-651.04)">
                    <circle cx="1546.69" cy="872.564" r="2.921" style="fill:rgb(97,56,18);"/>
                </g>
                <g transform="matrix(0.97044,0,0,0.97044,278.527,-475.09)">
                    <circle cx="1549.57" cy="874.208" r="13.579" style="fill:white;stroke:rgb(97,56,18);stroke-width:1.93px;"/>
                </g>
                <g transform="matrix(1.16854,0,0,1.16854,-21.4115,-644.406)">
                    <circle cx="1546.69" cy="872.564" r="2.921" style="fill:rgb(97,56,18);"/>
                </g>
                <g transform="matrix(1,0,0,1,181.904,-500.332)">
                    <path d="M1563.99,901.332C1566.15,910.237 1582.4,910.743 1588.15,901.332" style="fill:none;stroke:rgb(97,56,18);stroke-width:3.96px;"/>
                </g>
            </g>
            <g transform="matrix(0.873227,0,0,1,1793.05,215.409)">
                <rect x="161.117" y="9.908" width="181.174" height="99.333" style="fill:none;"/>
            </g>
        </g>
    </g>
</svg>
