<?xml version="1.0" encoding="UTF-8" standalone="no"?>
<!DOCTYPE svg PUBLIC "-//W3C//DTD SVG 1.1//EN" "http://www.w3.org/Graphics/SVG/1.1/DTD/svg11.dtd">
<svg width="100%" height="100%" viewBox="0 0 159 100" version="1.1" xmlns="http://www.w3.org/2000/svg" xmlns:xlink="http://www.w3.org/1999/xlink" xml:space="preserve" xmlns:serif="http://www.serif.com/" style="fill-rule:evenodd;clip-rule:evenodd;stroke-linejoin:round;stroke-miterlimit:2;">
    <g transform="matrix(1,0,0,1,-2232.36,-9.90805)">
        <g>
            <g transform="matrix(1,0,0,1,-27.1321,0)">
                <g transform="matrix(1,0,0,1,1088.32,-1282.58)">
                    <path d="M1213.14,1329.14C1212.28,1329.14 1211.58,1328.44 1211.58,1327.58C1211.58,1326.72 1212.28,1326.02 1213.14,1326.02L1290.16,1326.02C1291.03,1326.02 1291.73,1326.72 1291.73,1327.58C1291.73,1328.44 1291.03,1329.14 1290.16,1329.14L1289.59,1329.14C1289.59,1329.18 1289.59,1329.21 1289.59,1329.24C1289.59,1338.6 1282,1346.19 1272.65,1346.19C1263.29,1346.19 1255.7,1338.6 1255.7,1329.24C1255.7,1329.21 1255.7,1329.18 1255.7,1329.14L1247.03,1329.14C1247.03,1329.18 1247.03,1329.21 1247.03,1329.24C1247.03,1338.6 1239.44,1346.19 1230.09,1346.19C1220.73,1346.19 1213.14,1338.6 1213.14,1329.24C1213.14,1329.21 1213.14,1329.18 1213.14,1329.14Z" style="fill:rgb(97,56,18);"/>
                </g>
                <g transform="matrix(0.721934,0,0,1,675.314,0)">
                    <path d="M2282.99,80.416C2282.07,80.416 2281.32,79.669 2281.32,78.749C2281.32,77.829 2282.07,77.083 2282.99,77.083L2328.05,77.083C2328.97,77.083 2329.72,77.829 2329.72,78.749C2329.72,79.669 2328.97,80.416 2328.05,80.416L2282.99,80.416Z" style="fill:rgb(97,56,18);"/>
                </g>
            </g>
            <g transform="matrix(0.873227,0,0,1,2091.67,0)">
                <rect x="161.117" y="9.908" width="181.174" height="99.333" style="fill:none;"/>
            </g>
        </g>
    </g>
</svg>
