<?xml version="1.0" encoding="UTF-8" standalone="no"?>
<!DOCTYPE svg PUBLIC "-//W3C//DTD SVG 1.1//EN" "http://www.w3.org/Graphics/SVG/1.1/DTD/svg11.dtd">
<svg width="100%" height="100%" viewBox="0 0 159 100" version="1.1" xmlns="http://www.w3.org/2000/svg" xmlns:xlink="http://www.w3.org/1999/xlink" xml:space="preserve" xmlns:serif="http://www.serif.com/" style="fill-rule:evenodd;clip-rule:evenodd;stroke-linejoin:round;stroke-miterlimit:2;">
    <g transform="matrix(1,0,0,1,-324.792,-225.317)">
        <g>
            <g transform="matrix(1,0,0,1,-19.7836,225.522)">
                <g transform="matrix(1.1324,0,0,1.1324,-430.635,-590.407)">
                    <path d="M740.686,557.051C740.922,557.778 741.05,558.554 741.05,559.359C741.05,563.483 737.702,566.831 733.578,566.831C729.454,566.831 726.106,563.483 726.106,559.359C726.106,555.235 729.454,551.887 733.578,551.887C734.383,551.887 735.159,552.015 735.886,552.251C734.695,552.835 733.874,554.06 733.874,555.475C733.874,557.455 735.482,559.063 737.462,559.063C738.877,559.063 740.102,558.242 740.686,557.051Z" style="fill:rgb(97,56,18);"/>
                </g>
                <g transform="matrix(0.54375,0,0,0.54375,5.58252,-265.539)">
                    <path d="M740.292,562.641C739.076,565.122 736.525,566.831 733.578,566.831C729.454,566.831 726.106,563.483 726.106,559.359C726.106,556.412 727.816,553.861 730.297,552.645C735.021,554.181 738.757,557.916 740.292,562.641Z" style="fill:white;"/>
                </g>
                <g transform="matrix(1.1324,0,0,1.1324,-379.644,-590.407)">
                    <path d="M740.686,557.051C740.922,557.778 741.05,558.554 741.05,559.359C741.05,563.483 737.702,566.831 733.578,566.831C729.454,566.831 726.106,563.483 726.106,559.359C726.106,555.235 729.454,551.887 733.578,551.887C734.383,551.887 735.159,552.015 735.886,552.251C734.695,552.835 733.874,554.06 733.874,555.475C733.874,557.455 735.482,559.063 737.462,559.063C738.877,559.063 740.102,558.242 740.686,557.051Z" style="fill:rgb(97,56,18);"/>
                </g>
                <g transform="matrix(0.54375,0,0,0.54375,56.5739,-265.539)">
                    <path d="M740.292,562.641C739.076,565.122 736.525,566.831 733.578,566.831C729.454,566.831 726.106,563.483 726.106,559.359C726.106,556.412 727.816,553.861 730.297,552.645C735.021,554.181 738.757,557.916 740.292,562.641Z" style="fill:white;"/>
                </g>
                <g transform="matrix(1,0,0,1,-340.844,-523.463)">
                    <path d="M755.104,608.796C749.721,606.175 745.393,601.68 743.878,595.862C743.229,593.366 742.119,589.018 744.033,586.527C746.78,582.949 755.077,585.631 757.419,585.907C760.458,586.265 763.482,586.853 766.54,586.935C771.966,587.081 777.068,584.21 782.528,584.465C784.149,584.54 785.756,584.981 787.272,585.561C792.388,587.517 788.189,597.722 787.132,599.886C785.23,603.778 781.692,606.782 777.599,608.74C776.247,604.513 771.725,601.402 766.36,601.402C760.972,601.402 756.434,604.54 755.104,608.796Z" style="fill:rgb(97,56,18);"/>
                </g>
                <g transform="matrix(1,0,0,1,-308.587,-113.215)">
                    <path d="M722.847,198.547C724.177,194.291 728.716,189.74 734.104,189.74C739.468,189.74 743.991,194.264 745.343,198.492C741.742,200.215 737.712,201.129 733.989,201.129C730.151,201.129 726.284,200.22 722.847,198.547Z" style="fill:rgb(255,90,113);"/>
                </g>
            </g>
            <g transform="matrix(0.873227,0,0,1,184.1,215.409)">
                <rect x="161.117" y="9.908" width="181.174" height="99.333" style="fill:none;"/>
            </g>
        </g>
    </g>
</svg>
