<?xml version="1.0" encoding="UTF-8" standalone="no"?>
<!DOCTYPE svg PUBLIC "-//W3C//DTD SVG 1.1//EN" "http://www.w3.org/Graphics/SVG/1.1/DTD/svg11.dtd">
<svg width="100%" height="100%" viewBox="0 0 159 100" version="1.1" xmlns="http://www.w3.org/2000/svg" xmlns:xlink="http://www.w3.org/1999/xlink" xml:space="preserve" xmlns:serif="http://www.serif.com/" style="fill-rule:evenodd;clip-rule:evenodd;stroke-linejoin:round;stroke-miterlimit:2;">
    <g transform="matrix(1,0,0,1,-1008.11,-225.317)">
        <g>
            <g transform="matrix(1,0,0,1,230.065,0)">
                <g transform="matrix(1,0,0,1,-555.915,-1381.84)">
                    <path d="M1379.69,1653.19C1379.44,1653.9 1378.72,1654.36 1377.95,1654.23C1377.1,1654.09 1376.53,1653.29 1376.67,1652.43C1377.8,1645.52 1382.26,1642.85 1385.99,1642.13C1386.61,1641.99 1387.25,1641.91 1387.91,1641.91C1387.96,1641.91 1388,1641.91 1388.05,1641.91C1388.1,1641.91 1388.15,1641.91 1388.2,1641.91C1388.27,1641.91 1388.34,1641.91 1388.4,1641.92C1392.94,1642.18 1396.55,1645.95 1396.55,1650.55C1396.55,1655.32 1392.68,1659.19 1387.91,1659.19C1384.07,1659.19 1380.8,1656.67 1379.69,1653.19Z" style="fill:rgb(97,56,18);"/>
                </g>
                <g transform="matrix(-1,0,0,1,2270.22,-1381.84)">
                    <path d="M1379.69,1653.19C1379.44,1653.9 1378.72,1654.36 1377.95,1654.23C1377.1,1654.09 1376.53,1653.29 1376.67,1652.43C1377.8,1645.52 1382.26,1642.85 1385.99,1642.13C1386.61,1641.99 1387.25,1641.91 1387.91,1641.91C1387.96,1641.91 1388,1641.91 1388.05,1641.91C1388.1,1641.91 1388.15,1641.91 1388.2,1641.91C1388.27,1641.91 1388.34,1641.91 1388.4,1641.92C1392.94,1642.18 1396.55,1645.95 1396.55,1650.55C1396.55,1655.32 1392.68,1659.19 1387.91,1659.19C1384.07,1659.19 1380.8,1656.67 1379.69,1653.19Z" style="fill:rgb(97,56,18);"/>
                </g>
                <g transform="matrix(1,0,0,1,90.7558,-302.19)">
                    <path d="M755.104,608.796C749.721,606.175 745.393,601.68 743.878,595.862C743.229,593.366 742.119,589.018 744.033,586.527C746.78,582.949 755.077,585.631 757.419,585.907C760.458,586.265 763.482,586.853 766.54,586.935C771.966,587.081 777.068,584.21 782.528,584.465C784.149,584.54 785.756,584.981 787.272,585.561C792.388,587.517 788.189,597.722 787.132,599.886C785.23,603.778 781.692,606.782 777.599,608.74C776.247,604.513 771.725,601.402 766.36,601.402C760.972,601.402 756.434,604.54 755.104,608.796Z" style="fill:rgb(97,56,18);"/>
                </g>
                <g transform="matrix(1,0,0,1,123.012,108.059)">
                    <path d="M722.847,198.547C724.177,194.291 728.716,189.74 734.104,189.74C739.468,189.74 743.991,194.264 745.343,198.492C741.742,200.215 737.712,201.129 733.989,201.129C730.151,201.129 726.284,200.22 722.847,198.547Z" style="fill:rgb(255,90,113);"/>
                </g>
            </g>
            <g transform="matrix(0.873227,0,0,1,867.421,215.409)">
                <rect x="161.117" y="9.908" width="181.174" height="99.333" style="fill:none;"/>
            </g>
        </g>
    </g>
</svg>
