<?xml version="1.0" encoding="UTF-8" standalone="no"?>
<!DOCTYPE svg PUBLIC "-//W3C//DTD SVG 1.1//EN" "http://www.w3.org/Graphics/SVG/1.1/DTD/svg11.dtd">
<svg width="100%" height="100%" viewBox="0 0 159 100" version="1.1" xmlns="http://www.w3.org/2000/svg" xmlns:xlink="http://www.w3.org/1999/xlink" xml:space="preserve" xmlns:serif="http://www.serif.com/" style="fill-rule:evenodd;clip-rule:evenodd;stroke-linecap:round;stroke-linejoin:round;stroke-miterlimit:1.5;">
    <g transform="matrix(1,0,0,1,-590.273,-9.90805)">
        <g>
            <g transform="matrix(1,0,0,1,-84.1926,-200.832)">
                <g transform="matrix(1,0,0,1,50.2701,200.832)">
                    <path d="M743.136,48.134C742.895,51.751 739.882,54.614 736.205,54.614C732.584,54.614 729.606,51.837 729.287,48.298L714.541,48.298C713.391,48.298 712.457,47.364 712.457,46.214C712.457,45.064 713.391,44.131 714.541,44.131L742.327,44.131C743.477,44.131 744.41,45.064 744.41,46.214C744.41,47.077 743.884,47.818 743.136,48.134Z" style="fill:rgb(89,63,2);"/>
                </g>
                <g transform="matrix(1,0,0,1,-497.831,-930.515)">
                    <path d="M1240.02,1175.48L1240.16,1175.48C1241.31,1175.48 1242.24,1176.41 1242.24,1177.56C1242.24,1178.42 1241.71,1179.16 1240.97,1179.48C1240.98,1179.33 1240.98,1179.17 1240.98,1179.02C1240.98,1177.72 1240.63,1176.51 1240.02,1175.48Z" style="fill:rgb(89,63,2);"/>
                </g>
                <g transform="matrix(1,0,0,1,0,200.832)">
                    <path d="M743.136,48.134C742.895,51.751 739.882,54.614 736.205,54.614C732.584,54.614 729.606,51.837 729.287,48.298L714.541,48.298C713.391,48.298 712.457,47.364 712.457,46.214C712.457,45.064 713.391,44.131 714.541,44.131L742.327,44.131C743.477,44.131 744.41,45.064 744.41,46.214C744.41,47.077 743.884,47.818 743.136,48.134Z" style="fill:rgb(89,63,2);"/>
                </g>
                <g transform="matrix(1,0,0,1,-497.831,-930.515)">
                    <path d="M1222.5,1202.93C1242.75,1220.59 1267.23,1214.98 1280.67,1203.02" style="fill:none;stroke:rgb(97,56,18);stroke-width:4.17px;"/>
                </g>
            </g>
            <g transform="matrix(0.873227,0,0,1,449.581,0)">
                <rect x="161.117" y="9.908" width="181.174" height="99.333" style="fill:none;"/>
            </g>
        </g>
    </g>
</svg>
